<svg viewBox="0 0 94 94" fill="none" xmlns="http://www.w3.org/2000/svg">
<path d="M91.918 89.965H82.1524V2.08201C82.1524 1.00391 81.2774 0.128906 80.2032 0.128906H13.8012C12.7231 0.128906 11.8481 1.00391 11.8481 2.08201V86.059C11.8481 87.4809 12.2309 88.8168 12.8989 89.9652H2.08286C1.00476 89.9652 0.129761 90.8402 0.129761 91.9183C0.129761 92.9964 1.00476 93.8714 2.08286 93.8714H91.9149C92.993 93.8714 93.868 92.9964 93.868 91.9183C93.8719 90.8402 92.9969 89.9652 91.9188 89.9652L91.918 89.965ZM78.246 78.246H27.473V4.03901H78.25L78.246 78.246ZM23.562 4.03901V78.25H19.6558C18.2339 78.25 16.898 78.6328 15.7496 79.3008L15.7535 4.03881L23.562 4.03901ZM19.6597 89.965C18.2183 89.965 16.9566 89.1759 16.2808 88.0119H50.9058C51.9839 88.0119 52.8589 87.1369 52.8589 86.0588C52.8589 84.9807 51.9839 84.1057 50.9058 84.1057H16.2808C16.9565 82.9416 18.2183 82.1526 19.6597 82.1526H78.2457V89.9651L19.6597 89.965Z" />
</svg>
