<svg viewBox="0 0 97 98" fill="none" xmlns="http://www.w3.org/2000/svg">
<path d="M87.715 30.707C91.1017 27.5273 93.2306 23.0234 93.2306 18.019C93.2306 8.4096 85.4142 0.593002 75.8046 0.593002C66.1991 0.596908 58.3826 8.4133 58.3826 18.023C58.3826 23.023 60.5115 27.5269 63.8982 30.711C59.1091 31.2579 55.3787 35.3282 55.3787 40.2579V41.3477C53.4998 40.6563 51.4842 40.2579 49.3709 40.2579C45.8748 40.2579 42.6209 41.3048 39.8904 43.0821C38.4529 40.293 35.6912 38.293 32.4373 37.9219C35.824 34.7422 37.9529 30.2383 37.9529 25.2339C37.9529 15.6245 30.1365 7.8079 20.5269 7.8079C10.9173 7.8079 3.10089 15.6243 3.10089 25.2299C3.10089 30.2299 5.22978 34.7338 8.61648 37.9179C3.82738 38.4648 0.0969849 42.5351 0.0969849 47.4648V87.1208C0.0969849 88.4489 1.17119 89.5231 2.49928 89.5231C3.82738 89.5231 4.90158 88.4489 4.90158 87.1208V47.4648C4.90158 44.8164 7.05779 42.6562 9.71019 42.6562H31.3432C33.6557 42.6562 35.5854 44.2968 36.0463 46.4726C33.4916 49.5038 31.9447 53.414 31.9447 57.6796C31.9447 62.6796 34.0736 67.1835 37.4603 70.3676C32.6712 70.9145 28.9408 74.9848 28.9408 79.9145V95.5355C28.9408 96.8636 30.015 97.9378 31.3431 97.9378C32.6712 97.9378 33.7454 96.8636 33.7454 95.5355L33.7415 79.9105C33.7415 77.2621 35.8977 75.1019 38.5501 75.1019H60.1831C62.8315 75.1019 64.9917 77.2581 64.9917 79.9105V95.5315C64.9917 96.8596 66.0659 97.9338 67.394 97.9338C68.7221 97.9338 69.7963 96.8596 69.7963 95.5315V79.9105C69.7963 74.9808 66.0658 70.9105 61.2768 70.3636C64.6635 67.1839 66.7924 62.68 66.7924 57.6756C66.7924 52.1444 64.1947 47.2186 60.1635 44.0276C60.1674 43.969 60.183 43.9143 60.183 43.8557V40.2502C60.183 37.6018 62.3392 35.4416 64.9916 35.4416H86.6246C89.273 35.4416 91.4332 37.5978 91.4332 40.2502V79.9062C91.4332 81.2343 92.5074 82.3085 93.8355 82.3085C95.1636 82.3085 96.2378 81.2343 96.2378 79.9062L96.2339 40.2542C96.2339 35.3245 92.5034 31.2542 87.7144 30.7073L87.715 30.707ZM7.90598 25.2304C7.90598 18.2734 13.5662 12.6134 20.523 12.6134C27.48 12.6134 33.14 18.2736 33.14 25.2304C33.14 32.1872 27.4798 37.8474 20.523 37.8474C13.566 37.8513 7.90598 32.1912 7.90598 25.2304ZM61.988 57.6794C61.988 64.6364 56.3278 70.2964 49.371 70.2964C42.4101 70.3003 36.75 64.6362 36.75 57.6794C36.75 54.5778 37.8789 51.7419 39.7383 49.5427C40.1445 49.3083 40.4766 48.9646 40.6875 48.5427C42.9531 46.3904 46.0039 45.0622 49.3672 45.0622C56.3242 45.0622 61.9882 50.7224 61.9882 57.6792L61.988 57.6794ZM63.1872 18.0234C63.1872 11.0664 68.8474 5.4064 75.8042 5.4064C82.7612 5.4064 88.4212 11.0666 88.4212 18.0234C88.4212 24.9804 82.761 30.6404 75.8042 30.6404C68.8472 30.6404 63.1872 24.9802 63.1872 18.0234Z" />
</svg>
