<svg xmlns="http://www.w3.org/2000/svg" xmlns:xlink="http://www.w3.org/1999/xlink" viewBox="0 0 560.47 116.21"><defs><style>.cls-1,.cls-7{fill:none;}.cls-2{isolation:isolate;}.cls-3{clip-path:url(#clip-path);}.cls-4{fill:#fcc87c;}.cls-5{mix-blend-mode:screen;}.cls-6{clip-path:url(#clip-path-3);}.cls-7{stroke:#fcc87c;stroke-width:1.5px;}.cls-8{clip-path:url(#clip-path-4);}</style><clipPath id="clip-path"><rect class="cls-1" width="560.47" height="116.21"/></clipPath><clipPath id="clip-path-3"><rect class="cls-1" x="56.16" y="107.71" width="450.1" height="9.5"/></clipPath><clipPath id="clip-path-4"><rect class="cls-1" x="56.16" y="-7" width="450.1" height="9.5"/></clipPath></defs><g class="cls-2"><g id="Layer_2" data-name="Layer 2"><g id="Layer_2-2" data-name="Layer 2"><g class="cls-3"><g class="cls-3"><path class="cls-4" d="M533,93.3c15,0,27.52-9.55,27.52-21.15v-.94C559.26,49,511.71,57,511.71,36.39v-.56C512.08,29.46,519,24,529.11,24l1.69.09c5.43.37,18.63,5,22.37,24.05V31.8A40.1,40.1,0,0,0,530.89,23H529.3c-14.69,0-24,7.2-24.33,16.09v.66C505,63,552.42,55.58,553.64,74.2v1.13c0,11.42-11.7,16.57-20.78,16.57l-2.15-.1c-3.47-.28-22.75-2-26.77-31.35L504,81.13a40.25,40.25,0,0,0,26.86,12.08Zm-28.55,0a11,11,0,0,1-6.83-6l-29-64.3-4.12,9.07a111.33,111.33,0,0,0-5.62,13.3,25.58,25.58,0,0,0-1.59,7.86,14,14,0,0,0,4.87,9.92,16.37,16.37,0,0,0,7,3.09,28.72,28.72,0,0,0,5.61.47c1.31.09,3.19.18,4.12,1.31a2,2,0,0,1,.47,1.49,3.76,3.76,0,0,1-1.31,3,3.53,3.53,0,0,1-2.15.56L474.73,73c-4.4-.94-8-4.21-11.79-6.46a12.85,12.85,0,0,0-6.36-2.06h-.29a10,10,0,0,0-6.17,2.62,19,19,0,0,0-3.47,4.68c-1,1.78-7.39,15.91-7.39,16a10.85,10.85,0,0,1-7.68,5.52h14c-4.4-.94-5.33-3.09-5.33-4.49l.09-.75c.75-1.5,2.62-5.81,4.78-10.3,1.31-2.71,4.21-8.14,9.64-9l1.21-.1c5.25,0,8.9,6.18,16.85,7.21l.94.09a6.94,6.94,0,0,0,6.55-4.77,5.21,5.21,0,0,0,.28-1.69,3.48,3.48,0,0,0-1.31-2.8,8.08,8.08,0,0,0-4.21-1.22c-1.78-.09-7.4,0-12.73-7.86a15,15,0,0,1-2.53-8.52,16,16,0,0,1,.84-5.24q1.41-3.8,3.09-7.3c.56-1.31,1.13-2.62,1.78-3.93l24.71,54.66a4.77,4.77,0,0,1,.19,1.4c0,1.41-.75,3.65-5.06,4.59Zm-76.56,0S422.6,91.71,422.6,87V29.09c0-4.21,3.46-5.62,5.24-6.18-8.24.56-13.48,1-19.75,3.09a40.38,40.38,0,0,0-14.32,7.77c-4.3,3.84-7.39,9.08-7.39,15.07v.28a39.21,39.21,0,0,0,1.77,10.39c.94,3.46,2,6.83,3,10.2.84,2.9,1.87,6.18,1.87,9.36a11.47,11.47,0,0,1-.28,2.53c-.28,1.22-.84,3-2.34,3-9,0-29.39-61.68-29.39-61.68H349c2.15,1.13,5.34,3.56,5.34,5.9V87c0,4.68-5.34,6.27-5.34,6.27h11.79s-5.33-1.59-5.33-6.27V27.22S373.37,86.09,389,86.09a6.21,6.21,0,0,0,2.52-.56c2.25-.94,2.63-4.12,2.63-6.55V78a49.85,49.85,0,0,0-2.44-10.39c-.93-3.65-2.15-7.11-3.09-10.76a36.35,36.35,0,0,1-1.12-7.87,17,17,0,0,1,.28-3.09,18.36,18.36,0,0,1,4.31-8.61c3.55-4.3,8.51-7.11,13.66-9.17a54.9,54.9,0,0,1,10.11-2.9V87c0,4.68-5.33,6.27-5.33,6.27Zm-108-.09s-5.34-1.5-5.34-6.18V24h21.44c3.27,0,7,3.36,9.36,11.23l-2.44-12.36H279.49l-2.44,12.36C279.39,27.4,283.14,24,286.51,24h21.34V87c0,4.68-5.34,6.18-5.34,6.18ZM250,93.3c15,0,27.52-9.64,27.52-21.25v-.84C276.3,49.12,228.75,57,228.75,36.48v-.65c.38-6.37,7.31-11.79,17.41-11.79l1.69.09c5.43.37,17.22,2.9,19.75,19.37l6.55-6.64c-9-12.08-20.22-13.67-26.21-13.95h-1.4c-14.79,0-24.15,7.3-24.52,16.19v.75c0,23.12,47.36,15.73,48.57,34.26v1.22c0,11.51-11.88,16.57-20.87,16.57l-2-.1c-3.56-.28-17.13-2-20.6-20.4l-7.58,6.27c9.74,13.38,21.16,15.07,28.36,15.54Zm-34.16-.09s-5.34-1.5-5.34-6.18V29.09c0-4.68,5.34-6.18,5.34-6.18H198.52s5.34,1.5,5.34,6.18V87c0,4.68-5.34,6.18-5.34,6.18Zm-29.48.09c2.15,0,4.77-.56,8.42-3.37a9.47,9.47,0,0,1-3.18.56,7.31,7.31,0,0,1-5.34-2.06c-1.31-1.21-3.18-3.09-5-11.14-1.12-5.33-2.25-9.54-6.64-12.45a16.7,16.7,0,0,0-9.74-2.62c-2.34,0-4.49.28-6,.38l-3.74.09a24.06,24.06,0,0,1-3.75-.28c-1.5-.28-3.55-.93-3.93-2.62l-.09-.65c0-1.5,1.31-2,2.9-2a18.28,18.28,0,0,1,4.77.84c2.16.66,4.31,1.31,6.46,1.78a20.31,20.31,0,0,0,5.24.84H167c18.06,0,21.62-12.17,21.62-18.06,0-10.86-8.24-19.56-23-19.56H129.82s5.24,1.49,5.24,6.17V87.12c0,4.68-5.24,6.18-5.24,6.18h17.32s-5.34-1.5-5.34-6.18v-63h18.82c12.54,0,20.59,8.24,20.59,18.44,0,13.66-9.92,16.75-15.26,16.75a12.27,12.27,0,0,1-2-.18c-2.24-.47-4.49-1-6.73-1.69a38,38,0,0,0-4.68-1.31,14.58,14.58,0,0,0-2.06-.19,5.64,5.64,0,0,0-2.81.66,3.41,3.41,0,0,0-1.41,2.71,3,3,0,0,0,.57,1.78A5.9,5.9,0,0,0,151,63.53a17.25,17.25,0,0,0,3.84.38c1.31,0,2.62-.09,3.93-.19h.94a13.8,13.8,0,0,1,11.42,5.34c4.4,5.33,3.84,13.76,7,19.56a8.34,8.34,0,0,0,7.21,4.68Zm-60.28,0s-5.34-1.5-5.34-6.18V29.18c0-4.68,5.34-6.17,5.34-6.17H108.67S114,24.5,114,29.18V57.64h-3C76.94,56.8,75,35.17,75,30.21v-1C75,24.5,80.31,23,80.31,23H63s5.34,1.49,5.34,6.17c0,20,16.28,26.49,29.39,28.46H75l-6.64-.1V87.12C68.33,91.8,63,93.3,63,93.3H80.31S75,91.8,75,87.12V58.67h39V87.12c0,4.68-5.33,6.18-5.33,6.18Zm-91-.09A35.36,35.36,0,0,0,54.47,87.5l-.65-1A33.35,33.35,0,0,1,35.1,92.18C19.75,92.18,7.39,76.64,7.39,58,7.39,39.57,19.66,24,35,24h.09c8,0,17,6,17,18v.56L59.25,37c-7.68-12.82-19.38-14-24.15-14a35.15,35.15,0,0,0,0,70.3"/><g class="cls-5"><g class="cls-6"><line class="cls-7" x1="65.16" y1="115.46" x2="497.26" y2="115.46"/></g></g><g class="cls-5"><g class="cls-8"><line class="cls-7" x1="65.16" y1="0.75" x2="497.26" y2="0.75"/></g></g></g></g></g></g></g></svg>