
<svg width="235px" height="236px" viewBox="0 0 235 236" version="1.1" xmlns="http://www.w3.org/2000/svg" xmlns:xlink="http://www.w3.org/1999/xlink">
    <!-- Generator: Sketch 49.3 (51167) - http://www.bohemiancoding.com/sketch -->
    <desc>Created with Sketch.</desc>
    <defs></defs>
    <g id="Page-1" stroke="none" stroke-width="1" fill="none" fill-rule="evenodd">
        <g id="Asset-28" transform="translate(92.000000, 92.500000) rotate(-45.000000) translate(-92.000000, -92.500000) translate(-40.000000, 21.000000)" stroke="#1D4756" stroke-width="4">
            <circle id="Oval" cx="151.78" cy="8.5" r="8.5"></circle>
            <circle id="Oval" cx="111.78" cy="8.5" r="8.5"></circle>
            <circle id="Oval" cx="131.78" cy="31.5" r="8.5"></circle>
            <path d="M146,36.06 C146,36.06 178.53,70 154.49,94.06 C154.49,94.06 200.62,89.27 203.28,138.6 C203.28,138.6 234.67,113.43 263.38,142.13" id="Shape"></path>
            <path d="M157.33,24.75 C157.33,24.75 191.28,57.28 215.33,33.23 C215.33,33.23 210.55,79.36 259.88,82.02 C259.88,82.02 234.7,113.42 263.41,142.12" id="Shape"></path>
            <path d="M46.38,96.16 L125.92,16.62 C127.510587,15.0282759 129.66977,14.1358136 131.92,14.14 C134.170667,14.1335962 136.330669,15.0263968 137.92,16.62 L217.47,96.16" id="Shape"></path>
            <path d="M117.79,36.06 C117.79,36.06 85.26,70 109.3,94.05 C109.3,94.05 63.18,89.26 60.52,138.59 C60.52,138.59 29.12,113.42 0.41,142.12" id="Shape"></path>
            <path d="M106.48,24.75 C106.48,24.75 72.53,57.28 48.48,33.23 C48.48,33.23 53.27,79.36 3.94,82.02 C3.94,82.02 29.11,113.42 0.4,142.12" id="Shape"></path>
        </g>
    </g>
</svg>