<svg xmlns="http://www.w3.org/2000/svg" viewBox="0 0 60.43 57.76"><defs><style>.cls-1{fill:none;stroke:#1d4756;stroke-miterlimit:10;stroke-width:4px;}</style></defs><g id="Layer_2" data-name="Layer 2"><g id="Layer_4" data-name="Layer 4"><path class="cls-1" d="M29.69,45.05,13.89,55.59a1,1,0,0,1-1.44-1L17.6,36.27a1,1,0,0,0-.33-1L2.36,23.5a1,1,0,0,1,.55-1.69l19-.76a.93.93,0,0,0,.85-.61L29.32,2.62a1,1,0,0,1,1.78,0l6.58,17.82a.94.94,0,0,0,.85.61l19,.76a1,1,0,0,1,.55,1.69L43.15,35.27a.93.93,0,0,0-.32,1L48,54.55a.94.94,0,0,1-1.43,1L30.74,45.05A1,1,0,0,0,29.69,45.05Z"/></g></g></svg>