<svg xmlns="http://www.w3.org/2000/svg" viewBox="0 0 164.3 164.27"><defs><style>.cls-1{fill:#1d4756;}</style></defs><g id="Layer_2" data-name="Layer 2"><g id="Layer_4" data-name="Layer 4"><path class="cls-1" d="M84.8,164.27A79.5,79.5,0,0,1,28.59,28.55,79.5,79.5,0,0,1,141,141,79,79,0,0,1,84.8,164.27Zm0-155a75.47,75.47,0,1,0,53.39,22.08A75.28,75.28,0,0,0,84.8,9.3Z"/><path class="cls-1" d="M18.33,45.88,1,28.58a3.54,3.54,0,0,1,0-5L23.61,1a3.62,3.62,0,0,1,5,0l17.3,17.3-2.83,2.83-17-17L4.19,26.08l17,17Z"/><path class="cls-1" d="M150.87,85.14h-4A62,62,0,0,0,85,23.22v-4A66,66,0,0,1,150.87,85.14Z"/><path class="cls-1" d="M7,18.3a8.5,8.5,0,1,1,12-12L16.21,9.11a4.5,4.5,0,1,0-6.36,6.36Z"/></g></g></svg>