<svg xmlns="http://www.w3.org/2000/svg" viewBox="0 0 328.66 328.66"><defs><style>.cls-1{fill:none;stroke:#6092a0;stroke-miterlimit:10;stroke-width:4px;}</style></defs><g id="Layer_2" data-name="Layer 2"><g id="Layer_1-2" data-name="Layer 1"><line class="cls-1" x1="164.33" y1="70.33" x2="164.33" y2="26.33"/><line class="cls-1" x1="152.06" y1="71.13" x2="146.32" y2="27.51"/><line class="cls-1" x1="140" y1="73.53" x2="128.61" y2="31.03"/><line class="cls-1" x1="128.36" y1="77.48" x2="111.52" y2="36.83"/><line class="cls-1" x1="117.33" y1="82.92" x2="95.33" y2="44.82"/><line class="cls-1" x1="107.1" y1="89.75" x2="80.32" y2="54.85"/><line class="cls-1" x1="97.86" y1="97.86" x2="66.75" y2="66.75"/><line class="cls-1" x1="89.75" y1="107.1" x2="54.85" y2="80.32"/><line class="cls-1" x1="82.92" y1="117.33" x2="44.82" y2="95.33"/><line class="cls-1" x1="77.48" y1="128.36" x2="36.83" y2="111.52"/><line class="cls-1" x1="73.53" y1="140" x2="31.03" y2="128.61"/><line class="cls-1" x1="71.13" y1="152.06" x2="27.51" y2="146.32"/><line class="cls-1" x1="70.33" y1="164.33" x2="26.33" y2="164.33"/><line class="cls-1" x1="71.13" y1="176.6" x2="27.51" y2="182.34"/><line class="cls-1" x1="73.53" y1="188.66" x2="31.03" y2="200.05"/><line class="cls-1" x1="77.48" y1="200.3" x2="36.83" y2="217.14"/><line class="cls-1" x1="82.92" y1="211.33" x2="44.82" y2="233.33"/><line class="cls-1" x1="89.75" y1="221.55" x2="54.85" y2="248.34"/><line class="cls-1" x1="97.86" y1="230.8" x2="66.75" y2="261.91"/><line class="cls-1" x1="107.1" y1="238.9" x2="80.32" y2="273.81"/><line class="cls-1" x1="117.33" y1="245.73" x2="95.33" y2="283.84"/><line class="cls-1" x1="128.36" y1="251.17" x2="111.52" y2="291.82"/><line class="cls-1" x1="140" y1="255.13" x2="128.61" y2="297.63"/><line class="cls-1" x1="152.06" y1="257.52" x2="146.32" y2="301.15"/><line class="cls-1" x1="164.33" y1="258.33" x2="164.33" y2="302.33"/><line class="cls-1" x1="176.6" y1="257.52" x2="182.34" y2="301.15"/><line class="cls-1" x1="188.66" y1="255.13" x2="200.05" y2="297.63"/><line class="cls-1" x1="200.3" y1="251.17" x2="217.14" y2="291.82"/><line class="cls-1" x1="211.33" y1="245.73" x2="233.33" y2="283.84"/><line class="cls-1" x1="221.55" y1="238.9" x2="248.34" y2="273.81"/><line class="cls-1" x1="230.8" y1="230.8" x2="261.91" y2="261.91"/><line class="cls-1" x1="238.9" y1="221.55" x2="273.81" y2="248.34"/><line class="cls-1" x1="245.73" y1="211.33" x2="283.84" y2="233.33"/><line class="cls-1" x1="251.17" y1="200.3" x2="291.82" y2="217.14"/><line class="cls-1" x1="255.13" y1="188.66" x2="297.63" y2="200.05"/><line class="cls-1" x1="257.52" y1="176.6" x2="301.15" y2="182.34"/><line class="cls-1" x1="258.33" y1="164.33" x2="302.33" y2="164.33"/><line class="cls-1" x1="257.52" y1="152.06" x2="301.15" y2="146.32"/><line class="cls-1" x1="255.13" y1="140" x2="297.63" y2="128.61"/><line class="cls-1" x1="251.17" y1="128.36" x2="291.82" y2="111.52"/><line class="cls-1" x1="245.73" y1="117.33" x2="283.84" y2="95.33"/><line class="cls-1" x1="238.9" y1="107.1" x2="273.81" y2="80.32"/><line class="cls-1" x1="230.8" y1="97.86" x2="261.91" y2="66.75"/><line class="cls-1" x1="221.55" y1="89.75" x2="248.34" y2="54.85"/><line class="cls-1" x1="211.33" y1="82.92" x2="233.33" y2="44.82"/><line class="cls-1" x1="200.3" y1="77.48" x2="217.14" y2="36.83"/><line class="cls-1" x1="188.66" y1="73.53" x2="200.05" y2="31.03"/><line class="cls-1" x1="176.6" y1="71.13" x2="182.34" y2="27.51"/><line class="cls-1" x1="175.18" y1="81.03" x2="167.69" y2="138.55"/><line class="cls-1" x1="153.25" y1="81.06" x2="160.9" y2="138.56"/><line class="cls-1" x1="132.07" y1="86.77" x2="154.34" y2="140.32"/><line class="cls-1" x1="113.1" y1="97.76" x2="148.47" y2="143.72"/><line class="cls-1" x1="97.61" y1="113.29" x2="143.68" y2="148.53"/><line class="cls-1" x1="86.68" y1="132.29" x2="140.29" y2="154.41"/><line class="cls-1" x1="81.03" y1="153.48" x2="138.55" y2="160.97"/><line class="cls-1" x1="81.06" y1="175.41" x2="138.56" y2="167.76"/><line class="cls-1" x1="86.77" y1="196.58" x2="140.32" y2="174.31"/><line class="cls-1" x1="97.76" y1="215.56" x2="143.72" y2="180.19"/><line class="cls-1" x1="113.29" y1="231.04" x2="148.53" y2="184.98"/><line class="cls-1" x1="132.29" y1="241.98" x2="154.41" y2="188.36"/><line class="cls-1" x1="153.48" y1="247.63" x2="160.97" y2="190.11"/><line class="cls-1" x1="175.41" y1="247.59" x2="167.76" y2="190.1"/><line class="cls-1" x1="196.58" y1="241.89" x2="174.31" y2="188.34"/><line class="cls-1" x1="215.56" y1="230.9" x2="180.19" y2="184.93"/><line class="cls-1" x1="231.04" y1="215.37" x2="184.98" y2="180.13"/><line class="cls-1" x1="241.98" y1="196.36" x2="188.36" y2="174.24"/><line class="cls-1" x1="247.63" y1="175.18" x2="190.11" y2="167.69"/><line class="cls-1" x1="247.59" y1="153.25" x2="190.1" y2="160.9"/><line class="cls-1" x1="241.89" y1="132.07" x2="188.34" y2="154.34"/><line class="cls-1" x1="230.9" y1="113.1" x2="184.93" y2="148.47"/><line class="cls-1" x1="215.37" y1="97.61" x2="180.13" y2="143.68"/><line class="cls-1" x1="196.36" y1="86.68" x2="174.24" y2="140.29"/><rect class="cls-1" x="158.46" y="5.05" width="10.74" height="10.74" transform="translate(55.36 -112.79) rotate(45)"/><rect class="cls-1" x="118.64" y="10.43" width="10.74" height="10.74" transform="translate(24.51 -59.89) rotate(30)"/><rect class="cls-1" x="81.57" y="25.92" width="10.74" height="10.74" transform="translate(11.06 -21.44) rotate(15)"/><rect class="cls-1" x="49.78" y="50.48" width="10.74" height="10.74"/><rect class="cls-1" x="25.42" y="82.44" width="10.74" height="10.74" transform="translate(-21.68 10.96) rotate(-15)"/><rect class="cls-1" x="10.17" y="119.61" width="10.74" height="10.74" transform="translate(-60.41 24.51) rotate(-30)"/><rect class="cls-1" x="5.05" y="159.46" width="10.74" height="10.74" transform="translate(-113.5 55.65) rotate(-45)"/><rect class="cls-1" x="10.43" y="199.27" width="10.74" height="10.74" transform="translate(-169.33 116) rotate(-60)"/><rect class="cls-1" x="25.92" y="236.34" width="10.74" height="10.74" transform="translate(-210.28 209.38) rotate(-75)"/><rect class="cls-1" x="50.48" y="268.14" width="10.74" height="10.74" transform="translate(-217.65 329.36) rotate(-90)"/><rect class="cls-1" x="82.44" y="292.49" width="10.74" height="10.74" transform="translate(-177.18 459.77) rotate(-105)"/><rect class="cls-1" x="119.61" y="307.75" width="10.74" height="10.74" transform="translate(-83.7 577.91) rotate(-120)"/><rect class="cls-1" x="159.46" y="312.86" width="10.74" height="10.74" transform="translate(56.36 659.81) rotate(-135)"/><rect class="cls-1" x="199.27" y="307.49" width="10.74" height="10.74" transform="translate(225.44 686.12) rotate(-150)"/><rect class="cls-1" x="236.34" y="291.99" width="10.74" height="10.74" transform="translate(398.23 647.15) rotate(-165)"/><rect class="cls-1" x="268.14" y="267.43" width="10.74" height="10.74" transform="translate(547.02 545.6) rotate(-180)"/><rect class="cls-1" x="292.49" y="235.48" width="10.74" height="10.74" transform="matrix(-0.97, 0.26, -0.26, -0.97, 647.91, 396.4)"/><rect class="cls-1" x="307.75" y="198.31" width="10.74" height="10.74" transform="translate(686.12 223.51) rotate(150)"/><rect class="cls-1" x="312.86" y="158.46" width="10.74" height="10.74" transform="translate(659.1 54.65) rotate(135)"/><rect class="cls-1" x="307.49" y="118.64" width="10.74" height="10.74" transform="translate(576.69 -84.93) rotate(120)"/><rect class="cls-1" x="291.99" y="81.57" width="10.74" height="10.74" transform="translate(458.31 -177.78) rotate(105)"/><rect class="cls-1" x="267.43" y="49.78" width="10.74" height="10.74" transform="translate(327.95 -217.65) rotate(90)"/><rect class="cls-1" x="235.48" y="25.42" width="10.74" height="10.74" transform="translate(208.26 -209.82) rotate(75)"/><rect class="cls-1" x="198.31" y="10.17" width="10.74" height="10.74" transform="translate(115.3 -168.62) rotate(60)"/></g></g></svg>