<svg xmlns="http://www.w3.org/2000/svg" viewBox="0 0 265.81 145.54"><defs><style>.cls-1{fill:none;stroke:#1d4756;stroke-miterlimit:10;stroke-width:4px;}</style></defs><g id="Layer_2" data-name="Layer 2"><g id="Layer_4" data-name="Layer 4"><circle class="cls-1" cx="152.78" cy="10.5" r="8.5"/><circle class="cls-1" cx="112.78" cy="10.5" r="8.5"/><circle class="cls-1" cx="132.78" cy="33.5" r="8.5"/><path class="cls-1" d="M147,38.06s32.53,33.94,8.49,58c0,0,46.13-4.79,48.79,44.54,0,0,31.39-25.17,60.1,3.53"/><path class="cls-1" d="M158.33,26.75s33.95,32.53,58,8.48c0,0-4.78,46.13,44.55,48.79,0,0-25.18,31.4,3.53,60.1"/><path class="cls-1" d="M47.38,98.16l79.54-79.54a8.46,8.46,0,0,1,6-2.48h0a8.44,8.44,0,0,1,6,2.48l79.55,79.54"/><path class="cls-1" d="M118.79,38.06S86.26,72,110.3,96.05c0,0-46.12-4.79-48.78,44.54,0,0-31.4-25.17-60.11,3.53"/><path class="cls-1" d="M107.48,26.75s-33.95,32.53-58,8.48c0,0,4.79,46.13-44.54,48.79,0,0,25.17,31.4-3.54,60.1"/></g></g></svg>