<svg xmlns="http://www.w3.org/2000/svg" viewBox="0 0 363.35 334.16"><defs><style>.cls-1{fill:#1d4756;}</style></defs><g id="Layer_2" data-name="Layer 2"><g id="Layer_1-2" data-name="Layer 1"><path class="cls-1" d="M115.64,72.87l-2.1-.9c.29-.69,7.51-17.19,31.11-29.67,13.79-7.29,30.34-11.65,49.2-13,23.5-1.63,50.67,1.49,80.76,9.27L274,40.82c-29.79-7.71-56.67-10.81-79.88-9.21-18.52,1.27-34.76,5.52-48.27,12.62C122.92,56.31,115.71,72.7,115.64,72.87Z"/><path class="cls-1" d="M182.57,66.27h-.14a187.52,187.52,0,0,1-20.47-4c-13.52-3.49-22.54-7.73-26.81-12.59l1.72-1.51a21,21,0,0,0,4.55,3.74l-.06-.15c23.86-10.24,41.4,11.69,42.14,12.63l.47.6-.37.71A1.18,1.18,0,0,1,182.57,66.27Zm-.87-.5h0ZM143.75,53.23c11.07,5.94,28.91,9.2,36,10.32C174.81,58.41,161.16,46.72,143.75,53.23Z"/><path class="cls-1" d="M229.3,58.35h0c-32.2-.65-51.43-25.09-51.62-25.33l1.81-1.4a65.41,65.41,0,0,0,10.91,10.29c11.64.09,21.48,2,29.26,5.62,6.36,3,9.62,6.35,11,8.1a1.68,1.68,0,0,1-1.32,2.72ZM193.63,44.27A65.82,65.82,0,0,0,227.94,56C224.63,52.48,215.19,45.11,193.63,44.27Z"/><path class="cls-1" d="M137.15,48.94l-2.28-.1c0-.27,1.4-27.05,21.47-46.23a1.21,1.21,0,0,1,2,.75c0,.24,1.13,24.67-20.15,38A55.9,55.9,0,0,0,137.15,48.94ZM156.07,6.11c-10.22,10.64-14.94,23.25-17.11,32a39.73,39.73,0,0,0,14.86-20.47A45.23,45.23,0,0,0,156.07,6.11Z"/><path class="cls-1" d="M175.62,34l-.83-2.13a62.57,62.57,0,0,0,9.9-5.33c2.12-9.23,6.43-15.77,12.81-19.42a21.15,21.15,0,0,1,11.2-2.88,1.29,1.29,0,0,1,1.09.74,1.31,1.31,0,0,1-.13,1.32C194.9,26.37,176.4,33.7,175.62,34Zm31-27.44c-4.43.37-14.63,2.91-19,18.08A87.19,87.19,0,0,0,206.59,6.56Z"/><path class="cls-1" d="M223.31,31.83l-.58-2.21a55,55,0,0,0,12.33-5.49C238.53,7.68,252,1.7,256.54.9a1.36,1.36,0,0,1,1.32.51A1.38,1.38,0,0,1,258,2.82C247.52,25.29,224.29,31.58,223.31,31.83ZM255,3.75a27.62,27.62,0,0,0-17.16,18.63A51,51,0,0,0,255,3.75Zm.94-1.9Z"/><path class="cls-1" d="M258,53.81a1,1,0,0,1-.24,0l-.25,0c-6.1-1.09-14.06-5.09-17.39-18l.25-.06a29.44,29.44,0,0,0-5.82-2.65l.62-2.2c.6.16,14.73,4.29,23.93,21.09a1.26,1.26,0,0,1-1.1,1.86Zm.17-2.27h0ZM243,37.33c1.82,5.52,5.52,11.56,13,13.7A44.43,44.43,0,0,0,243,37.33Z"/><path class="cls-1" d="M263.3,38.18l0-2.29a55,55,0,0,0,12.81-2.15l-.88-.31c3.27-9.23,14.83-8.16,17.11-7.85a1.32,1.32,0,0,1,.64,2.35C280.34,37.85,264,38.17,263.3,38.18Zm25.81-10.52c-3.55,0-9.06.83-11.36,5.58a45.73,45.73,0,0,0,11.69-5.58Zm2.89.18h0Z"/><path class="cls-1" d="M294.43,57.77a1.39,1.39,0,0,1-.35,0c-7.46-2-12.13-7.06-13.21-14.11a29.29,29.29,0,0,0-3.48-1.69l.82-2.14C278.75,40,291.59,45,295.64,56a1.29,1.29,0,0,1-1.21,1.74ZM283.55,45.25a14.17,14.17,0,0,0,9.08,9.6A26.76,26.76,0,0,0,283.55,45.25Z"/><path class="cls-1" d="M273.47,49.83a3.72,3.72,0,1,1,3.72-3.72A3.73,3.73,0,0,1,273.47,49.83Zm0-5.15a1.43,1.43,0,1,0,1.43,1.43A1.43,1.43,0,0,0,273.47,44.68Z"/><path class="cls-1" d="M136.2,62.41a4.29,4.29,0,1,1,4.29-4.29A4.3,4.3,0,0,1,136.2,62.41Zm0-6.29a2,2,0,1,0,2,2A2,2,0,0,0,136.2,56.12Z"/><path class="cls-1" d="M178.53,26.38a4.29,4.29,0,1,1,4.29-4.29A4.3,4.3,0,0,1,178.53,26.38Zm0-6.29a2,2,0,1,0,2,2A2,2,0,0,0,178.53,20.09Z"/><path class="cls-1" d="M65.24,178.53c-.46-.6-11.14-15.1-10.14-41.77.58-15.59,5.08-32.11,13.37-49.1C78.8,66.49,95.09,44.52,116.88,22.35L118.51,24C96.94,45.9,80.82,67.62,70.59,88.53,62.43,105.2,58,121.4,57.39,136.65c-1,25.93,9.57,40.37,9.68,40.51Z"/><path class="cls-1" d="M56.71,148.65l-.45-2.24a21,21,0,0,0,5.52-2.07l-.16,0c3.06-25.78,30.83-30,32-30.18l.76-.11.42.68a1.2,1.2,0,0,1-.07,1.31A191.63,191.63,0,0,1,81,131.73C71.24,141.69,63.06,147.39,56.71,148.65ZM91.05,117c-6.91,1.7-23.86,7.68-26.93,26C74.79,136.38,86.54,122.56,91.05,117Z"/><path class="cls-1" d="M63.55,103.54l-.3-2.27A64.86,64.86,0,0,0,77.61,97c5.9-10,12.46-17.61,19.51-22.53,5.76-4,10.3-5.15,12.5-5.48a1.69,1.69,0,0,1,1.69,2.54C94.64,99.06,63.86,103.5,63.55,103.54Zm45.08-32.06c-4.72,1.1-15.82,5.59-27.33,23.84A65.89,65.89,0,0,0,108.63,71.48Z"/><path class="cls-1" d="M55.87,148.5c-.23-.15-22.72-14.74-29.3-41.71a1.23,1.23,0,0,1,.4-1.22,1.2,1.2,0,0,1,1.27-.17c.22.09,21.93,11.34,22.84,36.45a58.69,58.69,0,0,0,6,4.72Zm-26.4-39.73c4.1,14.17,12.66,24.57,19.18,30.83a39.77,39.77,0,0,0-10.3-23.11A45.15,45.15,0,0,0,29.47,108.77Zm-.68-2.53h0Z"/><path class="cls-1" d="M63.4,105.78l-2.26-.35a65.09,65.09,0,0,0,.33-11.23C54.54,87.74,51,80.74,51.06,73.39a21.14,21.14,0,0,1,3.1-11.13,1.29,1.29,0,0,1,2.26.19C66.43,85.27,63.53,105,63.4,105.78ZM55.12,65.24c-1.9,4-4.8,14.13,6.13,25.53A87.16,87.16,0,0,0,55.12,65.24Z"/><path class="cls-1" d="M85.36,63.4l-2.2-.6a55,55,0,0,0,1.4-13.43c-12.5-11.23-10.93-25.92-9.37-30.22a1.36,1.36,0,0,1,2.4-.31C91.8,39.16,85.63,62.42,85.36,63.4ZM76.89,21.91a27.57,27.57,0,0,0,7.55,24.17A51,51,0,0,0,76.89,21.91Z"/><path class="cls-1" d="M92.06,54.25l-1.6-1.64c.45-.43,11.1-10.6,30.24-10.17a1.26,1.26,0,0,1,.92,2.08l-.17.19c-5.72,6.79-14.1,8.9-24.25,6.07l.07-.26A29.48,29.48,0,0,0,92.06,54.25Zm7.88-5.15c5.7,1.19,12.79,1,18.38-4.37A44.57,44.57,0,0,0,99.94,49.1Zm20-6.09,0,0Z"/><path class="cls-1" d="M110.85,31.94l-2-1.12a55.4,55.4,0,0,0,4.55-12.17l-.72.61c-6.36-7.45.35-16.92,1.75-18.75A1.34,1.34,0,0,1,115.83,0a1.32,1.32,0,0,1,1,1.09C119.09,17,111.19,31.33,110.85,31.94Zm4-27.9c-1.81,3-4.08,8.41-1,12.91A45.94,45.94,0,0,0,114.82,4Z"/><path class="cls-1" d="M121.15,21.61l-1.45-1.77c.46-.37,11.21-9,22.79-7a1.3,1.3,0,0,1,1,.88,1.31,1.31,0,0,1-.32,1.31l0,0c-5.47,5.4-12.14,6.94-18.79,4.36A30.43,30.43,0,0,0,121.15,21.61Zm6-3.67A14.18,14.18,0,0,0,140,14.88,26.55,26.55,0,0,0,127.11,17.94Zm15-2.83h0Z"/><path class="cls-1" d="M122.8,30.81a3.71,3.71,0,0,1-3.21-5.57A3.72,3.72,0,1,1,126,29h0A3.71,3.71,0,0,1,122.8,30.81Zm0-5.15a1.57,1.57,0,0,0-.37.05,1.44,1.44,0,1,0,1.08.15A1.39,1.39,0,0,0,122.81,25.66Z"/><path class="cls-1" d="M64.57,156.27a4.37,4.37,0,0,1-2.14-.57,4.3,4.3,0,0,1-1.57-5.86,4.29,4.29,0,0,1,5.86-1.57,4.29,4.29,0,0,1-2.15,8Zm0-6.29a1.86,1.86,0,0,0-.52.07A2,2,0,1,0,66.31,153a2,2,0,0,0-1.73-3Z"/><path class="cls-1" d="M54.52,101.6a4.24,4.24,0,0,1-2.13-.58,4.29,4.29,0,1,1,5.86-1.57h0A4.3,4.3,0,0,1,54.52,101.6Zm0-6.29a2,2,0,1,0,1.73,3,2.06,2.06,0,0,0,.2-1.52,1.94,1.94,0,0,0-.94-1.21A1.87,1.87,0,0,0,54.54,95.31Z"/><path class="cls-1" d="M130.22,273.79c-6.18,0-20.75-1.36-38.1-12.25-13.21-8.3-25.26-20.46-35.83-36.13-13.16-19.53-24-44.62-32.35-74.58l2.2-.61c8.22,29.65,19,54.47,32,73.78,10.37,15.41,22.17,27.35,35.08,35.5,21.94,13.84,39.74,11.89,39.92,11.87l.27,2.27A27.35,27.35,0,0,1,130.22,273.79Z"/><path class="cls-1" d="M103.23,266.09l-2.16-.74a21.06,21.06,0,0,0,1-5.81l-.1.13C81.13,244.12,91.36,218,91.8,216.86l.29-.72.81,0a1.17,1.17,0,0,1,1.09.74,189.43,189.43,0,0,1,6.74,19.71C104.47,250,105.31,260,103.23,266.09ZM93,220.52c-2,6.84-5.28,24.5,9.06,36.33C101.65,244.29,95.55,227.21,93,220.52Zm1-2.81h0Z"/><path class="cls-1" d="M67.58,237.61l-2.11-.87a65.43,65.43,0,0,0,3.46-14.6c-5.75-10.12-9-19.59-9.76-28.15-.6-7,.69-11.51,1.51-13.57a1.68,1.68,0,0,1,3-.19C79.25,208.45,67.7,237.32,67.58,237.61Zm-5.22-55.07c-1.41,4.64-3.07,16.5,7,35.59A65.94,65.94,0,0,0,62.36,182.54Z"/><path class="cls-1" d="M70.47,273.86a65.91,65.91,0,0,1-18.57-2.61,1.2,1.2,0,0,1-.37-2.13c.2-.14,20.79-13.33,43-1.56a55.74,55.74,0,0,0,7.1-2.85l1.06,2A77.32,77.32,0,0,1,70.47,273.86Zm-15.4-4.12c14.32,3.53,27.61,1.31,36.29-1.19a39.65,39.65,0,0,0-25.16-2.64A45.27,45.27,0,0,0,55.07,269.74Z"/><path class="cls-1" d="M68,240.64a66.23,66.23,0,0,0-9.57-5.91c-9.06,2.78-16.87,2.32-23.22-1.38a21.08,21.08,0,0,1-8.09-8.25,1.28,1.28,0,0,1,.09-1.32,1.3,1.3,0,0,1,1.21-.54c24.76,2.74,40.36,15.1,41,15.62ZM30.2,225.76c2.54,3.66,9.84,11.22,25.17,7.45A87,87,0,0,0,30.2,225.76Z"/><path class="cls-1" d="M42.1,200.25a55.32,55.32,0,0,0-10.92-7.93c-16,5.22-27.91-3.48-30.86-7a1.35,1.35,0,0,1,.93-2.23C26,181,43,197.92,43.73,198.65Zm-38.54-15a27.56,27.56,0,0,0,24.71,5.54A51.07,51.07,0,0,0,3.56,185.24Z"/><path class="cls-1" d="M36.93,188.83c-.15-.6-3.64-14.9,6.31-31.27a1.26,1.26,0,0,1,2.26.24l.09.25c2.11,5.82,2.62,14.72-6.87,24l-.17-.17a30.17,30.17,0,0,0,.6,6.35ZM44,160.77a44.57,44.57,0,0,0-5.38,18.08C42.52,174.5,45.9,168.29,44,160.77Zm-.69-2.22v0Z"/><path class="cls-1" d="M27.26,162A55.34,55.34,0,0,0,19,152l.17.93C9.54,154.7,4.68,144.15,3.81,142a1.32,1.32,0,0,1,1.71-1.73c14.9,6,23.35,20,23.7,20.55ZM7.05,143.46c1.72,3.09,5.24,7.73,10.67,7.33A46,46,0,0,0,7.05,143.46Zm-1.13-2.31Z"/><path class="cls-1" d="M23.17,147.12c-.09-.57-2.16-14.19,5.35-23.21a1.27,1.27,0,0,1,1.27-.44,1.29,1.29,0,0,1,1,.94c2,7.49,0,14-5.61,18.5a30,30,0,0,0,.28,3.85Zm5.83-20a26.58,26.58,0,0,0-3.77,12.65A14.16,14.16,0,0,0,29,127.11Zm1.28-1.74ZM28.56,125Z"/><path class="cls-1" d="M31,151.78a4,4,0,0,1-1-.12,3.72,3.72,0,1,1,4.18-5.45h0A3.72,3.72,0,0,1,31,151.78Zm0-5.14a1.43,1.43,0,0,0-.37,2.81,1.45,1.45,0,0,0,1.08-.15,1.4,1.4,0,0,0,.67-.87,1.41,1.41,0,0,0-.14-1.08A1.43,1.43,0,0,0,31,146.64Z"/><path class="cls-1" d="M110.05,265.23a4.33,4.33,0,0,1-3.72-2.15,4.28,4.28,0,0,1,4.83-6.28,4.23,4.23,0,0,1,2.6,2,4.29,4.29,0,0,1-1.57,5.86A4.17,4.17,0,0,1,110.05,265.23Zm0-6.29a1.87,1.87,0,0,0-1,.27,2,2,0,0,0,.48,3.66,2,2,0,0,0,1.52-.2,2,2,0,0,0-1-3.73Z"/><path class="cls-1" d="M57.69,246.59a4.27,4.27,0,0,1-4.15-5.4,4.21,4.21,0,0,1,2-2.6,4.29,4.29,0,0,1,5.86,1.57h0A4.29,4.29,0,0,1,59.82,246,4.25,4.25,0,0,1,57.69,246.59Zm0-6.29a2,2,0,0,0-1,.27,1.92,1.92,0,0,0-.93,1.21,2,2,0,0,0,.2,1.52,1.93,1.93,0,0,0,1.21.93,2,2,0,0,0,1.52-.2,2,2,0,0,0-1-3.73Z"/><path class="cls-1" d="M157,305.25c-20.48,0-43.38-3.25-68.29-9.69l.58-2.22c29.78,7.71,56.65,10.81,79.87,9.22,18.53-1.28,34.77-5.53,48.28-12.63,23-12.08,30.17-28.47,30.24-28.64l2.11.9c-.3.69-7.51,17.2-31.11,29.67-13.79,7.29-30.35,11.65-49.2,13C165.45,305.11,161.28,305.25,157,305.25Z"/><path class="cls-1" d="M226.48,286a21.25,21.25,0,0,0-4.55-3.74l.06.15a32.09,32.09,0,0,1-12.75,2.72c-17.13,0-28.8-14.59-29.39-15.35l-.48-.61.38-.7a1.17,1.17,0,0,1,1.18-.59,188.87,188.87,0,0,1,20.45,4c13.52,3.48,22.54,7.72,26.82,12.58Zm-42.87-15.41c4.93,5.14,18.58,16.82,36,10.32C208.53,275,190.68,271.73,183.61,270.61Zm-2-2.22h0Z"/><path class="cls-1" d="M183.9,302.54A65.91,65.91,0,0,0,173,292.25c-11.64-.08-21.49-2-29.27-5.62-6.35-3-9.62-6.35-11-8.1a1.67,1.67,0,0,1-.19-1.79,1.7,1.7,0,0,1,1.54-.93c32.2.66,51.44,25.09,51.63,25.34Zm-48.5-24.4c3.32,3.54,12.75,10.91,34.31,11.75A65.82,65.82,0,0,0,135.4,278.14Z"/><path class="cls-1" d="M206.17,331.89a1.25,1.25,0,0,1-.42-.08,1.2,1.2,0,0,1-.78-1c0-.24-1.14-24.67,20.15-38a54.73,54.73,0,0,0,1.07-7.57l2.29.1c0,.27-1.4,27.05-21.47,46.23A1.21,1.21,0,0,1,206.17,331.89ZM224.4,296a39.69,39.69,0,0,0-14.88,20.48,45.51,45.51,0,0,0-2.24,11.55C217.51,317.4,222.23,304.79,224.4,296Z"/><path class="cls-1" d="M155.35,329.94l-.7,0a1.29,1.29,0,0,1-1.09-.74,1.27,1.27,0,0,1,.13-1.31c14.76-20.08,33.26-27.41,34-27.71l.82,2.13a64.69,64.69,0,0,0-9.9,5.33c-2.12,9.23-6.43,15.77-12.81,19.42A21.62,21.62,0,0,1,155.35,329.94Zm20.44-20.41a87.34,87.34,0,0,0-19,18.07C161.19,327.23,171.39,324.69,175.79,309.53Z"/><path class="cls-1" d="M106.56,333.28a1.36,1.36,0,0,1-1.23-1.94c10.5-22.47,33.72-28.76,34.71-29l.58,2.21A55.12,55.12,0,0,0,128.29,310c-3.48,16.45-17,22.43-21.49,23.23A1,1,0,0,1,106.56,333.28Zm.84-1h0Zm18.1-20.52a51.13,51.13,0,0,0-17.16,18.63A27.57,27.57,0,0,0,125.5,311.78Z"/><path class="cls-1" d="M128.14,303.3c-.59-.16-14.72-4.29-23.93-21.09a1.27,1.27,0,0,1,.09-1.35,1.25,1.25,0,0,1,1.25-.49l.26.05c6.09,1.08,14.06,5.08,17.39,18l-.26.06a29,29,0,0,0,5.82,2.65Zm-20.75-20.17a44.59,44.59,0,0,0,13,13.71C118.53,291.31,114.84,285.27,107.39,283.13Zm-2.27-.51h0Zm1.1-1.51Z"/><path class="cls-1" d="M74.2,308.79a25.37,25.37,0,0,1-3.16-.2,1.33,1.33,0,0,1-.64-2.36C83,296.32,99.35,296,100,296l0,2.29a55.11,55.11,0,0,0-12.81,2.15l.89.31C85.69,307.66,78.56,308.79,74.2,308.79Zm-.3-2.29c3.54.07,9.32-.67,11.69-5.58A45.73,45.73,0,0,0,73.9,306.5Z"/><path class="cls-1" d="M85.14,294.37c-.55-.21-13.38-5.22-17.43-16.24a1.29,1.29,0,0,1,1.55-1.69c7.47,2.05,12.13,7,13.22,14.1A28.44,28.44,0,0,0,86,292.23ZM70.72,279.32a26.75,26.75,0,0,0,9.07,9.58A14.15,14.15,0,0,0,70.72,279.32Zm-2-.66Z"/><path class="cls-1" d="M89.87,291.77a3.72,3.72,0,1,1,3.72-3.72A3.72,3.72,0,0,1,89.87,291.77Zm0-5.15a1.43,1.43,0,1,0,1.43,1.43A1.43,1.43,0,0,0,89.87,286.62Z"/><path class="cls-1" d="M227.14,280.33a4.29,4.29,0,1,1,4.29-4.29A4.3,4.3,0,0,1,227.14,280.33Zm0-6.29a2,2,0,1,0,2,2A2,2,0,0,0,227.14,274Z"/><path class="cls-1" d="M184.82,316.36a4.29,4.29,0,1,1,4.29-4.29A4.29,4.29,0,0,1,184.82,316.36Zm0-6.29a2,2,0,1,0,2,2A2,2,0,0,0,184.82,310.07Z"/><path class="cls-1" d="M246.47,311.81l-1.63-1.61c21.57-21.94,37.69-43.66,47.91-64.56,8.16-16.68,12.6-32.87,13.2-48.13,1-25.92-9.56-40.36-9.67-40.51l1.83-1.37c.45.6,11.13,15.1,10.14,41.77-.58,15.59-5.08,32.11-13.37,49.1C284.55,267.67,268.26,289.64,246.47,311.81Z"/><path class="cls-1" d="M269,220.13l-.42-.68a1.18,1.18,0,0,1,.08-1.31,189.13,189.13,0,0,1,13.72-15.71c9.77-10,17.95-15.65,24.31-16.92l.44,2.24a21.16,21.16,0,0,0-5.52,2.07l.17,0c-3.07,25.78-30.83,30-32,30.18Zm30.28-29c-10.68,6.62-22.43,20.44-26.93,26C279.21,215.48,296.16,209.5,299.23,191.16Z"/><path class="cls-1" d="M253.47,265.21a1.64,1.64,0,0,1-1.39-.75,1.65,1.65,0,0,1,0-1.8c16.67-27.56,47.44-32,47.75-32l.31,2.27a64.85,64.85,0,0,0-14.37,4.3c-5.89,10-12.45,17.62-19.5,22.53-5.76,4-10.31,5.15-12.51,5.48Zm28.58-26.37a65.83,65.83,0,0,0-27.33,23.84C259.44,261.58,270.54,257.09,282.05,238.84Z"/><path class="cls-1" d="M335.6,228.87a1.25,1.25,0,0,1-.5-.11c-.21-.09-21.92-11.34-22.84-36.45a56.2,56.2,0,0,0-6-4.72l1.23-1.93c.23.15,22.73,14.74,29.3,41.72a1.19,1.19,0,0,1-.4,1.21A1.22,1.22,0,0,1,335.6,228.87Zm-1.05-1h0Zm1.49-1.23ZM314.7,194.56c1.64,17.33,14.06,27.36,19.16,30.78C329.75,211.2,321.21,200.82,314.7,194.56Z"/><path class="cls-1" d="M308.11,272.48H308a1.3,1.3,0,0,1-1.07-.77c-10-22.82-7.1-42.51-7-43.33l2.26.35a63.16,63.16,0,0,0-.34,11.23c6.94,6.46,10.44,13.46,10.42,20.81a21.24,21.24,0,0,1-3.1,11.13A1.3,1.3,0,0,1,308.11,272.48Zm.91-1.69Zm-6.92-27.4a86.84,86.84,0,0,0,6.13,25.53C310.12,264.9,313,254.79,302.1,243.39Z"/><path class="cls-1" d="M286.87,315.91a1.37,1.37,0,0,1-1.12-.58c-14.21-20.33-8-43.59-7.77-44.57l2.21.61a55.06,55.06,0,0,0-1.41,13.42c12.51,11.23,10.94,25.92,9.37,30.22a1.35,1.35,0,0,1-1.1.89Zm-8-27.83a50.9,50.9,0,0,0,7.56,24.17A27.62,27.62,0,0,0,278.9,288.08Z"/><path class="cls-1" d="M243.82,291.74h-1.17a1.26,1.26,0,0,1-.93-2.08l.17-.2c5.72-6.79,14.11-8.89,24.26-6.07l-.07.26a29.12,29.12,0,0,0,5.2-3.73l1.6,1.64C272.45,282,262.23,291.74,243.82,291.74Zm-.36-.61v0Zm14.42-6.66a17.89,17.89,0,0,0-12.85,5,44.7,44.7,0,0,0,18.37-4.38A27.23,27.23,0,0,0,257.88,284.47Z"/><path class="cls-1" d="M247.86,334.16a1.27,1.27,0,0,1-.34,0,1.34,1.34,0,0,1-1-1.09c-2.28-15.88,5.61-30.2,6-30.8l2,1.11a55.06,55.06,0,0,0-4.55,12.17l.71-.61c6.36,7.45-.34,16.92-1.75,18.75A1.3,1.3,0,0,1,247.86,334.16Zm-.77-1.91Zm2.45-15a45.58,45.58,0,0,0-1,12.91C250.34,327.08,252.6,321.71,249.54,317.21Z"/><path class="cls-1" d="M224.42,321.6a20.62,20.62,0,0,1-3.56-.3,1.29,1.29,0,0,1-.69-2.19c5.51-5.44,12.17-7,18.83-4.39a32.8,32.8,0,0,0,3.2-2.17l1.44,1.78C243.24,314.66,234.55,321.6,224.42,321.6Zm-1-2.31a26.65,26.65,0,0,0,12.83-3.07A14.14,14.14,0,0,0,223.4,319.29Zm-2.15-.24Z"/><path class="cls-1" d="M240.53,310.78a3.7,3.7,0,0,1-3.21-5.57h0a3.72,3.72,0,1,1,3.21,5.57Zm-1.23-4.43a1.48,1.48,0,0,0-.15,1.09,1.41,1.41,0,0,0,.67.86,1.39,1.39,0,0,0,1.09.15,1.44,1.44,0,0,0,.86-.67,1.43,1.43,0,0,0-2.47-1.43Z"/><path class="cls-1" d="M298.76,186.47a4.28,4.28,0,0,1-3.71-6.43h0a4.29,4.29,0,0,1,5.86-1.57,4.19,4.19,0,0,1,2,2.6,4.28,4.28,0,0,1-3,5.25A4.31,4.31,0,0,1,298.76,186.47ZM297,181.18a2,2,0,0,0,2.25,2.93,2,2,0,0,0,1.41-2.45,2,2,0,0,0-3.66-.48Z"/><path class="cls-1" d="M308.81,241.14a4.28,4.28,0,0,1-3.71-6.43h0a4.29,4.29,0,1,1,4.82,6.29A4.69,4.69,0,0,1,308.81,241.14Zm-1.73-5.29a2,2,0,0,0,.73,2.74,2.06,2.06,0,0,0,1.52.2,2,2,0,0,0,1.22-.94,2.06,2.06,0,0,0,.2-1.52,2,2,0,0,0-3.67-.48Z"/><path class="cls-1" d="M337.2,183.94c-8.22-29.65-19-54.47-32-73.78-10.36-15.4-22.16-27.35-35.07-35.5-21.94-13.84-39.75-11.89-39.92-11.87L230,60.52c.75-.09,18.65-2.09,41.25,12.1,13.21,8.3,25.27,20.46,35.83,36.13,13.17,19.53,24.05,44.62,32.36,74.58Z"/><path class="cls-1" d="M270.45,118a1.17,1.17,0,0,1-1.09-.72,188,188,0,0,1-6.74-19.73c-3.74-13.45-4.59-23.38-2.51-29.52l2.17.74a21.11,21.11,0,0,0-1,5.81l.1-.13C282.21,90,272,116.2,271.54,117.3l-.28.71-.8,0Zm-1-1.6v0ZM261.3,77.31c.4,12.56,6.49,29.65,9.06,36.33C272.36,106.79,275.65,89.14,261.3,77.31Z"/><path class="cls-1" d="M301.1,154.8a1.66,1.66,0,0,1-1.47-.87c-15.53-28.21-4-57.09-3.87-57.37l2.12.86a64.77,64.77,0,0,0-3.46,14.6c5.74,10.12,9,19.59,9.76,28.15.6,7-.69,11.51-1.51,13.57a1.67,1.67,0,0,1-1.46,1.06ZM294,116a65.73,65.73,0,0,0,7,35.58C302.4,147,304.06,135.13,294,116Z"/><path class="cls-1" d="M288.33,71.48a41.13,41.13,0,0,1-19.51-4.88,58.48,58.48,0,0,0-7.1,2.85l-1.05-2c.24-.12,24.13-12.3,50.77-4.51a1.2,1.2,0,0,1,.85,1,1.22,1.22,0,0,1-.48,1.19A47.21,47.21,0,0,1,288.33,71.48ZM272,65.62a39.66,39.66,0,0,0,25.16,2.63,45.27,45.27,0,0,0,11.13-3.83C294,60.89,280.67,63.11,272,65.62Zm38.81-.52h0Z"/><path class="cls-1" d="M335.05,110.93h-.15c-24.76-2.75-40.35-15.1-41-15.63l1.44-1.78a64,64,0,0,0,9.56,5.91c9.06-2.78,16.87-2.32,23.22,1.38a21.22,21.22,0,0,1,8.1,8.25,1.3,1.3,0,0,1-.1,1.32A1.28,1.28,0,0,1,335.05,110.93Zm.1-2.28h0ZM308,101a87.12,87.12,0,0,0,25.18,7.45C330.61,104.75,323.31,97.18,308,101Z"/><path class="cls-1" d="M357.78,151.25c-22.36,0-37.49-15.06-38.16-15.74l1.62-1.6a56,56,0,0,0,10.93,7.93c16-5.21,27.91,3.49,30.86,7a1.37,1.37,0,0,1-.93,2.24Q359.9,151.25,357.78,151.25Zm-22.71-7.87a51.11,51.11,0,0,0,24.72,5.54A27.59,27.59,0,0,0,335.07,143.38Z"/><path class="cls-1" d="M319,177.2h-.14a1.27,1.27,0,0,1-1.05-.84l-.08-.25c-2.11-5.82-2.63-14.72,6.87-24l.17.18a29,29,0,0,0-.61-6.36l2.22-.56c.15.6,3.64,14.9-6.3,31.27A1.27,1.27,0,0,1,319,177.2Zm1-1.6h0Zm4.69-20.28c-3.87,4.34-7.25,10.55-5.38,18.07A44.42,44.42,0,0,0,324.69,155.32Z"/><path class="cls-1" d="M358.31,194a1.41,1.41,0,0,1-.49-.09c-14.89-6-23.35-20-23.7-20.56l2-1.17a55.52,55.52,0,0,0,8.26,10l-.17-.93c9.62-1.78,14.48,8.76,15.36,10.89a1.33,1.33,0,0,1-1.23,1.83Zm-12.69-10.6a45.59,45.59,0,0,0,10.68,7.33C354.57,187.62,351.07,183,345.62,183.37Z"/><path class="cls-1" d="M333.84,210.72a1.43,1.43,0,0,1-.29,0,1.32,1.32,0,0,1-1-.94c-1.95-7.49,0-14,5.61-18.5a34,34,0,0,0-.27-3.85l2.25-.36c.1.57,2.17,14.2-5.34,23.21A1.3,1.3,0,0,1,333.84,210.72Zm4.28-16.32a14.13,14.13,0,0,0-3.77,12.65A26.66,26.66,0,0,0,338.12,194.4Z"/><path class="cls-1" d="M332.34,189.81a3.7,3.7,0,0,1-3.22-1.85h0a3.73,3.73,0,1,1,3.22,1.85Zm-1.24-3a1.43,1.43,0,0,0,.87.67,1.41,1.41,0,0,0,1.08-.14,1.46,1.46,0,0,0,.67-.87,1.43,1.43,0,1,0-2.62.34Z"/><path class="cls-1" d="M253.31,77.51a4.31,4.31,0,0,1-3.73-2.14h0A4.29,4.29,0,1,1,257,71.08a4.28,4.28,0,0,1-3.7,6.43Zm-1.75-3.29a2,2,0,0,0,3.67-.48,2,2,0,0,0-.2-1.52,2,2,0,0,0-3.67.48,2.06,2.06,0,0,0,.2,1.52Z"/><path class="cls-1" d="M305.67,96.15A4.3,4.3,0,0,1,302,94h0a4.29,4.29,0,0,1,7.43-4.28,4.24,4.24,0,0,1,.43,3.25,4.28,4.28,0,0,1-4.14,3.18Zm-1.74-3.29a2,2,0,0,0,2.74.73,2,2,0,0,0,.73-2.73,2,2,0,0,0-2.73-.73,2,2,0,0,0-.94,1.21,2,2,0,0,0,.2,1.52Z"/></g></g></svg>