
<svg width="110px" height="382px" viewBox="0 0 110 382" version="1.1" xmlns="http://www.w3.org/2000/svg" xmlns:xlink="http://www.w3.org/1999/xlink">
    <g id="Page-1" stroke="none" stroke-width="1" fill="none" fill-rule="evenodd">
        <g id="Asset-26-rot90" transform="translate(-3.000000, -3.000000)" stroke="#1D4756" stroke-width="4">
            <g id="Layer_2" transform="translate(57.500000, 194.000000) rotate(90.000000) translate(-57.500000, -194.000000) translate(-136.500000, 136.500000)">
                <g id="Layer_4">
                    <rect id="Rectangle-path" transform="translate(56.790000, 56.783476) rotate(45.000000) translate(-56.790000, -56.783476) " x="16.645" y="16.6384765" width="80.29" height="80.29" rx="12"></rect>
                    <rect id="Rectangle-path" transform="translate(111.541167, 56.784644) rotate(45.000000) translate(-111.541167, -56.784644) " x="71.3961673" y="16.6396438" width="80.29" height="80.29" rx="12"></rect>
                    <rect id="Rectangle-path" transform="translate(166.295939, 57.678065) rotate(45.000000) translate(-166.295939, -57.678065) " x="126.150939" y="17.5330651" width="80.29" height="80.29" rx="12"></rect>
                    <rect id="Rectangle-path" transform="translate(220.785512, 56.788989) rotate(45.000000) translate(-220.785512, -56.788989) " x="180.640512" y="16.6439886" width="80.29" height="80.29" rx="12"></rect>
                    <rect id="Rectangle-path" transform="translate(275.546679, 56.790156) rotate(45.000000) translate(-275.546679, -56.790156) " x="235.401679" y="16.6451559" width="80.29" height="80.29" rx="12"></rect>
                    <rect id="Rectangle-path" transform="translate(330.291451, 57.673577) rotate(45.000000) translate(-330.291451, -57.673577) " x="290.146451" y="17.5285772" width="80.29" height="80.29" rx="12"></rect>
                </g>
            </g>
        </g>
    </g>
</svg>