<svg xmlns="http://www.w3.org/2000/svg" viewBox="0 0 145 143.03"><defs><style>.cls-1{fill:none;stroke:#1d4756;stroke-miterlimit:10;stroke-width:4px;}</style></defs><g id="Layer_2" data-name="Layer 2"><g id="Layer_4" data-name="Layer 4"><circle class="cls-1" cx="72.5" cy="14.51" r="5.5"/><circle class="cls-1" cx="61.21" cy="7.5" r="5.5"/><circle class="cls-1" cx="40" cy="15.22" r="5.5"/><circle class="cls-1" cx="22.71" cy="29.73" r="5.5"/><circle class="cls-1" cx="11.42" cy="49.28" r="5.5"/><circle class="cls-1" cx="7.5" cy="71.51" r="5.5"/><circle class="cls-1" cx="11.42" cy="93.74" r="5.5"/><circle class="cls-1" cx="22.71" cy="113.29" r="5.5"/><circle class="cls-1" cx="40" cy="127.81" r="5.5"/><circle class="cls-1" cx="61.21" cy="135.53" r="5.5"/><circle class="cls-1" cx="83.79" cy="135.53" r="5.5"/><circle class="cls-1" cx="105" cy="127.81" r="5.5"/><circle class="cls-1" cx="122.29" cy="113.29" r="5.5"/><circle class="cls-1" cx="133.58" cy="93.74" r="5.5"/><circle class="cls-1" cx="137.5" cy="71.51" r="5.5"/><circle class="cls-1" cx="133.58" cy="49.28" r="5.5"/><circle class="cls-1" cx="122.29" cy="29.73" r="5.5"/><circle class="cls-1" cx="105" cy="15.22" r="5.5"/><circle class="cls-1" cx="83.79" cy="7.5" r="5.5"/><circle class="cls-1" cx="53" cy="17.95" r="5.5"/><circle class="cls-1" cx="35.86" cy="27.85" r="5.5"/><circle class="cls-1" cx="23.14" cy="43.01" r="5.5"/><circle class="cls-1" cx="16.37" cy="61.62" r="5.5"/><circle class="cls-1" cx="16.37" cy="81.41" r="5.5"/><circle class="cls-1" cx="23.14" cy="100.01" r="5.5"/><circle class="cls-1" cx="35.86" cy="115.18" r="5.5"/><circle class="cls-1" cx="53" cy="125.08" r="5.5"/><circle class="cls-1" cx="72.5" cy="128.51" r="5.5"/><circle class="cls-1" cx="92" cy="125.08" r="5.5"/><circle class="cls-1" cx="109.14" cy="115.18" r="5.5"/><circle class="cls-1" cx="121.86" cy="100.01" r="5.5"/><circle class="cls-1" cx="128.63" cy="81.41" r="5.5"/><circle class="cls-1" cx="128.63" cy="61.62" r="5.5"/><circle class="cls-1" cx="121.86" cy="43.01" r="5.5"/><circle class="cls-1" cx="109.14" cy="27.85" r="5.5"/><circle class="cls-1" cx="92" cy="17.95" r="5.5"/></g></g></svg>