<svg xmlns="http://www.w3.org/2000/svg" viewBox="0 0 560.47 70.39"><defs><style>.cls-1{fill:#fcc87c;}</style></defs><g id="Layer_2" data-name="Layer 2"><g id="Layer_2-2" data-name="Layer 2"><path class="cls-1" d="M533,70.39c15,0,27.52-9.55,27.52-21.16V48.3c-1.21-22.19-48.76-14.23-48.76-34.82v-.56c.37-6.37,7.3-11.8,17.4-11.8l1.69.1c5.43.37,18.63,5,22.37,24.05V8.89A40.13,40.13,0,0,0,530.89.09H529.3c-14.69,0-24,7.21-24.33,16.1v.66c0,23.21,47.45,15.82,48.67,34.44v1.13c0,11.42-11.7,16.56-20.78,16.56l-2.15-.09c-3.47-.28-22.75-2-26.77-31.36L504,58.22a40.23,40.23,0,0,0,26.86,12.07Zm-28.55,0a11,11,0,0,1-6.83-6L468.56.09l-4.12,9.08a111.89,111.89,0,0,0-5.62,13.29,25.7,25.7,0,0,0-1.59,7.87,14,14,0,0,0,4.87,9.92,16.37,16.37,0,0,0,7,3.09,28.72,28.72,0,0,0,5.61.47c1.31.09,3.19.18,4.12,1.31a2,2,0,0,1,.47,1.49,3.76,3.76,0,0,1-1.31,3,3.53,3.53,0,0,1-2.15.56l-1.13-.09c-4.4-.94-8-4.22-11.79-6.46a12.75,12.75,0,0,0-6.36-2.06h-.29a10,10,0,0,0-6.17,2.62,18.85,18.85,0,0,0-3.47,4.68c-1,1.78-7.39,15.91-7.39,16a10.84,10.84,0,0,1-7.68,5.53h14c-4.4-.94-5.33-3.09-5.33-4.5l.09-.74c.75-1.5,2.62-5.81,4.78-10.3,1.31-2.71,4.21-8.14,9.64-9l1.21-.09c5.25,0,8.9,6.18,16.85,7.21l.94.09a6.94,6.94,0,0,0,6.55-4.77,5.25,5.25,0,0,0,.28-1.69,3.45,3.45,0,0,0-1.31-2.8,8.08,8.08,0,0,0-4.21-1.22c-1.78-.1-7.4,0-12.73-7.86a15,15,0,0,1-2.53-8.52,16,16,0,0,1,.84-5.24q1.41-3.79,3.09-7.3c.56-1.31,1.13-2.63,1.78-3.93L490.27,64.4a4.77,4.77,0,0,1,.19,1.4c0,1.4-.75,3.65-5.06,4.59Zm-76.56,0s-5.24-1.59-5.24-6.27V6.18C422.6,2,426.06.56,427.84,0c-8.24.56-13.48,1-19.75,3.09a40.22,40.22,0,0,0-14.32,7.77c-4.3,3.84-7.39,9.08-7.39,15.07v.28a39.28,39.28,0,0,0,1.77,10.39c.94,3.46,2,6.83,3,10.2C392,49.7,393,53,393,56.16a11.47,11.47,0,0,1-.28,2.53c-.28,1.21-.84,3-2.34,3C381.42,61.68,361,0,361,0H349c2.15,1.12,5.34,3.56,5.34,5.9V64.12c0,4.68-5.34,6.27-5.34,6.27h11.79s-5.33-1.59-5.33-6.27V4.31S373.37,63.18,389,63.18a6.21,6.21,0,0,0,2.52-.56c2.25-.94,2.63-4.12,2.63-6.55V55a49.85,49.85,0,0,0-2.44-10.39c-.93-3.65-2.15-7.12-3.09-10.77A36.17,36.17,0,0,1,387.5,26a17,17,0,0,1,.28-3.09,18.32,18.32,0,0,1,4.31-8.61c3.55-4.3,8.51-7.11,13.66-9.17a54.9,54.9,0,0,1,10.11-2.9V64.12c0,4.68-5.33,6.27-5.33,6.27Zm-108-.1s-5.34-1.49-5.34-6.17v-63h21.44c3.27,0,7,3.37,9.36,11.24L342.85,0H279.49l-2.44,12.36c2.34-7.87,6.09-11.24,9.46-11.24h21.34v63c0,4.68-5.34,6.17-5.34,6.17Zm-69.83.1c15,0,27.52-9.64,27.52-21.25V48.3c-1.22-22.09-48.77-14.23-48.77-34.73v-.65c.38-6.37,7.31-11.8,17.41-11.8l1.69.1c5.43.37,17.22,2.9,19.75,19.37L274.15,14C265.16,1.87,253.93.28,247.94,0h-1.4C231.75,0,222.39,7.3,222,16.19v.75c0,23.12,47.36,15.73,48.57,34.26v1.22c0,11.51-11.88,16.56-20.87,16.56l-2-.09c-3.56-.28-17.13-2-20.6-20.4l-7.58,6.27c9.74,13.38,21.16,15.07,28.36,15.53Zm-34.16-.1s-5.34-1.49-5.34-6.17V6.18c0-4.68,5.34-6.18,5.34-6.18H198.52s5.34,1.5,5.34,6.18V64.12c0,4.68-5.34,6.17-5.34,6.17Zm-29.48.1c2.15,0,4.77-.56,8.42-3.37a9.47,9.47,0,0,1-3.18.56,7.35,7.35,0,0,1-5.34-2.06c-1.31-1.22-3.18-3.09-5-11.14-1.12-5.33-2.25-9.55-6.64-12.45a16.7,16.7,0,0,0-9.74-2.62c-2.34,0-4.49.28-6,.38l-3.74.09a24.06,24.06,0,0,1-3.75-.28c-1.5-.28-3.55-.94-3.93-2.62l-.09-.66c0-1.49,1.31-2,2.9-2a18.28,18.28,0,0,1,4.77.84c2.16.66,4.31,1.31,6.46,1.78a20.31,20.31,0,0,0,5.24.84H167c18.06,0,21.62-12.17,21.62-18.06,0-10.86-8.24-19.57-23-19.57H129.82s5.24,1.5,5.24,6.18V64.21c0,4.68-5.24,6.18-5.24,6.18h17.32s-5.34-1.5-5.34-6.18v-63h18.82c12.54,0,20.59,8.23,20.59,18.44,0,13.66-9.92,16.75-15.26,16.75a11.15,11.15,0,0,1-2-.19c-2.24-.46-4.49-1-6.73-1.68a38,38,0,0,0-4.68-1.31,13.24,13.24,0,0,0-2.06-.19,5.64,5.64,0,0,0-2.81.66,3.41,3.41,0,0,0-1.41,2.71,3,3,0,0,0,.57,1.78A5.9,5.9,0,0,0,151,40.62a17.86,17.86,0,0,0,3.84.38c1.31,0,2.62-.1,3.93-.19h.94a13.8,13.8,0,0,1,11.42,5.34c4.4,5.33,3.84,13.75,7,19.56a8.34,8.34,0,0,0,7.21,4.68Zm-60.28,0s-5.34-1.5-5.34-6.18V6.27c0-4.68,5.34-6.18,5.34-6.18H108.67S114,1.59,114,6.27V34.73h-3C76.94,33.88,75,12.26,75,7.3v-1C75,1.59,80.31.09,80.31.09H63s5.34,1.5,5.34,6.18c0,20,16.28,26.49,29.39,28.46H75l-6.64-.1V64.21c0,4.68-5.34,6.18-5.34,6.18H80.31S75,68.89,75,64.21V35.76h39V64.21c0,4.68-5.33,6.18-5.33,6.18Zm-91-.1a35.36,35.36,0,0,0,19.37-5.71l-.65-1a33.42,33.42,0,0,1-18.72,5.7C19.75,69.26,7.39,53.73,7.39,35.1c0-18.44,12.27-34,27.62-34h.09c8,0,17,6,17,18v.56L59.25,14C51.57,1.22,39.87,0,35.1,0a35.15,35.15,0,0,0,0,70.29"/></g></g></svg>