<svg id="full-logo" xmlns="http://www.w3.org/2000/svg" viewBox="0 0 720.94 163.2">
<path d="M175.18,0H720.94V75.84c-.43,0-.87.12-1.3.12H175.14V1.32C175.14.88,175.17.44,175.18,0ZM244.1,41.37H263V52.16h-5.36v6.07h18.54V52.1h-5.28V24h5.31V18H257.63v6H263v10.8H244.09V24h5.26V18H230.93v6.09h5.15V52.15h-5.15v6.1h18.42V52.09H244.1Zm245.82-6.51V24h5.36V18H476.73v6h5.34V52.13h-5.34v6.11h18.55V52.1h-5.34V41.4h19V52.12h-5.34v6.12h18.5V52.1h-5.32V24h5.34V18H503.59v6.07h5.35V34.86ZM676.45,24V18H657.94v6h5.28V52.19H658v6.05h18.5V52.07h-5.37V41.41h19V52.14h-5.33v6.09h18.51V52.09H698V24h5.33V18H684.77V24h5.37V34.85h-19V24Zm-356,28.15c-1.34,0-2.61,0-3.88,0a1.48,1.48,0,0,1-1.59-.91c-1.09-2-2.26-4-3.4-6-.68-1.2-1.35-2.41-2.06-3.67.36-.17.6-.3.85-.39,8.11-3.15,9-12.51,4.77-17.79-2.87-3.61-6.86-5.12-11.24-5.27-7.19-.25-14.39-.12-21.58-.15a3.4,3.4,0,0,0-.65.13v6h5.31V52.16h-5.33v6.08H300.1V52.1h-5.27V43.46c2.07,0,4,0,6,0a1.58,1.58,0,0,1,1.65,1q3.62,6.55,7.32,13c.19.33.58.79.88.79,3.23.06,6.46,0,9.75,0ZM579.15,24V52.17h-5.27v6.08h18.44V52.1h-5.27V43.46c2,0,4,0,5.9,0a1.69,1.69,0,0,1,1.76,1c2.37,4.34,4.8,8.65,7.24,13,.21.36.63.84,1,.85,3.22.06,6.45,0,9.68,0v-6.2c-1.38,0-2.66,0-3.93,0a1.44,1.44,0,0,1-1.5-.88c-1.66-3-3.37-6-5.06-9-.14-.26-.24-.54-.37-.84.34-.14.59-.26.85-.36,8.59-3.35,9.07-13.86,3.65-19A15.17,15.17,0,0,0,596,18c-7.19-.19-14.39-.1-21.59-.13a4.58,4.58,0,0,0-.58.09v6Zm-21.93,0c0,7.07.13,14-.05,20.88a6.71,6.71,0,0,1-5.39,6.79,15.4,15.4,0,0,1-4,.44c-5.51,0-8.48-3.07-8.48-8.59V24h5.43V18H526.17V24h5.41V25.5c0,6.6-.08,13.2,0,19.79.09,5.45,2.5,9.59,7.5,12a21.64,21.64,0,0,0,12,1.62,15.54,15.54,0,0,0,8-3c3.82-2.93,5.29-7,5.34-11.64.07-6.28,0-12.55,0-18.83V24h5.38V18h-18.1v6ZM348.7,46.85c0,3.22,0,6.33,0,9.44,0,.28.44.7.75.8,1.22.35,2.47.64,3.72.89,5.15,1,10.34,1.64,15.57.56,8.45-1.74,10.79-8,9.18-14.65-.86-3.53-3.36-5.79-6.56-7.15-3-1.28-6.15-2.18-9.18-3.38a14.48,14.48,0,0,1-4.05-2.22,4,4,0,0,1,.88-6.78c3.59-1.77,7.35-1.16,11.22-.57v5.37h7V19c-2.75-.56-5.5-1.24-8.29-1.65a24.82,24.82,0,0,0-12.06.86c-4.74,1.68-7.42,5-7.64,10.07a10.1,10.1,0,0,0,6.18,10.3c2.26,1.06,4.69,1.76,7,2.65a62.33,62.33,0,0,1,5.85,2.39,4.52,4.52,0,0,1,2.63,4.71c-.2,2.27-1.68,3.43-3.72,4-3.85,1.08-7.66.56-11.56-.28V46.85Zm304,1.35-1.66.86a26.74,26.74,0,0,1-14.49,3.28,12.87,12.87,0,0,1-11.69-9.12,18.22,18.22,0,0,1,.08-11,11.4,11.4,0,0,1,4.77-6.4c5-3.16,10.23-2.58,15.63-1.31v7.31h7.4c0-3.72,0-7.35,0-11,0-.32-.48-.79-.84-.93-6.23-2.43-12.66-3.66-19.33-2.41-6.22,1.17-11.12,4.32-14.07,10.08a23.72,23.72,0,0,0-2.18,14.11c.8,6.29,3.66,11.33,9.34,14.51,4.68,2.62,9.77,3.12,15,2.75a29.7,29.7,0,0,0,11.15-3,1.74,1.74,0,0,0,.92-1.14C652.79,52.73,652.74,50.57,652.74,48.2Zm-181.2,0c-.48.24-.8.38-1.1.55-4.69,2.51-9.62,4.06-15,3.53-4.64-.45-8.42-2.41-10.7-6.64a16.91,16.91,0,0,1-1.35-11.77,12,12,0,0,1,7.84-9.39c4.1-1.51,8.25-1.09,12.37-.07.26.06.56.59.57.91.05,2.15,0,4.3,0,6.5h7.4c0-3.68,0-7.27,0-10.87a1.49,1.49,0,0,0-.84-1c-6.2-2.41-12.57-3.64-19.21-2.41s-11.73,4.67-14.59,11a24.36,24.36,0,0,0-1.69,13.7,19.24,19.24,0,0,0,3.69,9.23c3.81,5,9.12,7.08,15.15,7.57a31.77,31.77,0,0,0,16.53-3,1.76,1.76,0,0,0,.92-1.13C471.59,52.76,471.54,50.6,471.54,48.23ZM225.67,31.87c0-3.74,0-7.41,0-11.07,0-.31-.53-.73-.91-.88-6.16-2.4-12.49-3.59-19.09-2.39-6.28,1.15-11.21,4.29-14.19,10.08a23.81,23.81,0,0,0-2.11,14.46c1,7.31,4.74,12.68,11.75,15.3,8.14,3,16.15,2.06,23.94-1.48.24-.11.55-.43.55-.65,0-2.29,0-4.58,0-7l-1.24.67c-4.64,2.43-9.5,3.92-14.81,3.43A13.6,13.6,0,0,1,201,48.55a13.4,13.4,0,0,1-3.84-8.93c-.33-4.53.38-8.79,3.71-12.2s7.44-4.14,11.9-3.8c1.88.15,3.74.55,5.67.84v7.41ZM418.92,18H382.3V30.1h7v-6h7.34V52.16H390.8v6.1h19.49v-6.2h-5.8v-28H412v6h6.93ZM324.76,52.11v6.12h18.41V52.08H338V24h5.22V18H324.79v6.08h5.32V52.11Z"/>
<path d="M163.18,0V163.2H0V0ZM140.53,38.29c-9.27,3.4-18.3,6.73-27.34,10a1.35,1.35,0,0,0-1.08,1.52c0,5.31,0,10.63,0,16,0,.35.05.69.07,1h6.6v-5.3l29.86,1V67.8h6.5v-18h-6.57V55c-.66-.08-1.16-.19-1.66-.2q-7.47-.27-15-.49L121.45,54a6.12,6.12,0,0,1-.79-.13c1.07-.44,1.91-.79,2.75-1.12Q137.12,47.38,150.85,42a1,1,0,0,0,.75-1.12c0-1.76,0-3.52,0-5.28,0-.61-.18-.86-.78-1.1-7.72-3-15.42-6-23.12-9l-6.87-2.72.06-.16,27.72-.94v5.15h6.58v-18h-6.63V14l-29.83,1V9.75h-6.6c0,5.88,0,11.68,0,17.47a1.11,1.11,0,0,0,.61.81c1.91.76,3.85,1.46,5.78,2.17Zm3.13,34.49a6.48,6.48,0,0,0,.34.94c2.88,5.26,4.68,10.78,3.87,16.87-.65,4.86-2.86,8.73-7.4,10.94a18.18,18.18,0,0,1-11.4,1.34A13.2,13.2,0,0,1,117.67,91a26.51,26.51,0,0,1,.93-10.42h7.73V72.75c-4,0-7.93,0-11.85,0a1.13,1.13,0,0,0-.86.58c-2.86,7.61-4.36,15.35-2,23.41a19.33,19.33,0,0,0,10,12.42,25.71,25.71,0,0,0,17.19,2.07,19,19,0,0,0,14.94-12.74,31.06,31.06,0,0,0,1.22-15.21,29.11,29.11,0,0,0-3.06-9.82,1.35,1.35,0,0,0-.91-.68C148.58,72.75,146.22,72.78,143.66,72.78Zm-17.33,52.46v-7.85c-4,0-7.94,0-11.85,0-.32,0-.79.47-.91.81a69,69,0,0,0-2.08,6.69,31.38,31.38,0,0,0,.08,16.38c2,6.73,6.16,11.42,12.85,13.73a26.77,26.77,0,0,0,13.89.92c7.33-1.36,12.48-5.45,15.22-12.41,2-5,2.09-10.27,1.39-15.53a29.41,29.41,0,0,0-3-9.84c-.16-.3-.5-.72-.77-.73-2.42,0-4.85,0-7.51,0l.81,1.63c2.58,5.12,4.27,10.44,3.45,16.27-.67,4.81-2.9,8.65-7.37,10.82a18.21,18.21,0,0,1-12.44,1.12,13,13,0,0,1-7.85-5,13.82,13.82,0,0,1-2.55-6.7,25.84,25.84,0,0,1,.95-10.31Z"/>
<path d="M174.94,163.2v-76H492v76Zm27.09-50,.26,0,11.21,28.6c2,0,3.92,0,5.83,0a1.12,1.12,0,0,0,.86-.58q4.13-10.42,8.19-20.9c.93-2.37,1.85-4.75,2.78-7.13l.26.05c.29,8.57.59,17.14.89,25.83h-4.92v6.07h17v-6.14h-4.9c-.33-9.34-.66-18.56-1-27.9h4.94v-6.33c-5.48,0-10.88,0-16.27,0-.35,0-.86.52-1,.91-2.78,7.5-5.5,15-8.25,22.53-.33.91-.72,1.79-1.08,2.68h-.28l-9.62-26.08H190v6.33h5c-.1,1.74-.23,3.36-.28,5-.19,5.3-.33,10.61-.51,15.91-.07,2.3-.18,4.59-.27,7H189v6.08h17V139h-4.87C201.43,130.28,201.73,121.73,202,113.19ZM441.1,139h-5.18v6.06H454.4V139h-5.31v-8.45c2.21,0,4.36,0,6.51,0a1.26,1.26,0,0,1,.86.62c2.06,3.6,4.1,7.23,6.14,10.85.58,1,.92,2.47,1.8,3s2.33.17,3.53.18c2.22,0,4.45,0,6.69,0V139c-1.42,0-2.78,0-4.13,0a1.57,1.57,0,0,1-1.07-.64c-.92-1.48-1.78-3-2.63-4.51-1-1.78-2-3.56-3-5.38.3-.15.43-.24.57-.29,4.25-1.67,6.9-4.7,7.34-9.27a11.45,11.45,0,0,0-5.63-11.53c-3.25-2-6.91-2.54-10.61-2.6-6.12-.11-12.24,0-18.36,0-.39,0-.78,0-1.18.05v6.33h5.15Zm-49.32,6.06H410V139h-4.81l-13.82-34.19H374.75v6.29H380c-.14.47-.21.77-.32,1-1.27,3.16-2.56,6.31-3.83,9.47q-3.35,8.27-6.66,16.53a1.18,1.18,0,0,1-1.32.88c-1.23-.07-2.46,0-3.73,0v6.1h17.52V139h-5.14c.62-1.61,1.14-3.1,1.77-4.55a1.45,1.45,0,0,1,1-.75c5,0,10,0,15,0a1.06,1.06,0,0,1,.82.47c.64,1.56,1.22,3.15,1.89,4.91h-5.25Zm-128.84-34-11.32,28H247v6h17.49V139h-5.15c.64-1.7,1.21-3.3,1.85-4.87a1.05,1.05,0,0,1,.81-.46q7.56,0,15.12,0a1,1,0,0,1,.77.46c.66,1.57,1.24,3.16,1.92,4.93h-5.19v6h18V139c-1.26,0-2.42-.07-3.57,0a1.37,1.37,0,0,1-1.57-1.06c-4.32-10.72-8.66-21.44-12.94-32.18a1.42,1.42,0,0,0-1.62-1.08c-4.27,0-8.55,0-12.83,0h-2.5v6.38Zm24.92,0c1.21,0,2.29.07,3.36,0a2,2,0,0,1,2,1.09c3.13,5,6.31,9.94,9.46,14.9.94,1.47,2.38,2.84,2.68,4.43.45,2.42.11,5,.11,7.59h-5.61v6.07h19.17V139h-5.68c0-1.87.06-3.59,0-5.3a6.32,6.32,0,0,1,1.23-4.68,25.88,25.88,0,0,0,1.65-2.47c3.18-4.91,6.34-9.83,9.55-14.72a1.91,1.91,0,0,1,1.3-.7c1.14-.1,2.29,0,3.46,0v-6.27H312.12v6.12h5.69l-8.39,13.26-8.35-13.34h5.71v-6H287.86ZM352,145.11V139h-5.6v-9.92h14.18v-6.39h-14.2V111.19h12.32v6h7.16V104.8H333.18v6.29h5.18V139h-5.18v6.1Zm78.69,0V139h-5.33V111h5.33v-6.23H412.12v6.27h5.18v28h-5.14v6.05Z"/>
<path d="M294.84,37.61c-.06-.41-.11-.56-.11-.71V24.24c.1-.09.16-.19.22-.19,3,.06,6-.09,9,.24a6.5,6.5,0,0,1,5.21,9.43,5.7,5.7,0,0,1-4.63,3.39C301.3,37.49,298.07,37.46,294.84,37.61Z"/>
<path d="M587,37.62V24c3.5.15,7-.47,10.44.6,3.14,1,4.64,3.38,4.45,6.8a5.94,5.94,0,0,1-5.32,5.73C593.49,37.53,590.32,37.47,587,37.62Z"/>
<path d="M449.11,110.93c3.13.13,6.18.09,9.17.42a5.89,5.89,0,0,1,5.35,4.42,6.2,6.2,0,0,1-1.82,6.73,8.19,8.19,0,0,1-5.3,1.82c-2.44.11-4.87,0-7.4,0Z"/>
<path d="M381,127.35c1.91-4.91,3.77-9.71,5.74-14.79,2,5,3.85,9.85,5.79,14.79Z"/>
<path d="M263.87,127.38c1.9-4.93,3.75-9.74,5.73-14.85l5.79,14.85Z"/>
</svg>
