<svg width="274px" height="277px" viewBox="0 0 274 277" version="1.1" xmlns="http://www.w3.org/2000/svg"
    xmlns:xlink="http://www.w3.org/1999/xlink">
    <path
        d="M137.911562,9.4518725 C77.3748125,9.4518725 28.3010625,66.4756225 28.3010625,138.363123 C28.3010625,145.896873 28.8401875,153.281873 29.8753125,160.465623 C55.1693125,161.906873 94.7478125,163.889373 127.174062,164.311873 C128.090312,105.651873 121.470312,25.7731225 121.470312,25.7731225 L154.352812,25.7731225 C154.352812,25.7731225 147.730312,105.676873 148.650312,164.339373 C200.939062,163.758123 273.392812,158.914373 273.392812,158.914373 C263.476562,224.835623 206.597813,276.625623 137.911563,276.625623 C62.2415625,276.625623 0.8996875,214.034373 0.8996875,138.363123 C0.8996875,62.6931225 62.2415625,0.1006225 137.911563,0.1006225 C206.597813,0.1006225 263.476562,51.8906225 273.392812,117.810623 L246.162813,117.810623 C237.865312,55.6893725 192.560313,9.4518725 137.911563,9.4518725 Z M137.911562,267.273123 C183.081562,267.273123 221.870312,236.079373 238.651562,189.741873 C213.239063,188.360623 178.339062,186.741873 149.402812,186.400623 C150.936562,216.454373 154.352812,250.953123 154.352812,250.953123 L121.470312,250.953123 C121.470312,250.953123 124.884062,216.469373 126.420312,186.419373 C97.1340625,186.821873 62.1839375,188.476873 37.2108125,189.849373 C54.0130625,236.128123 92.7753125,267.273123 137.911563,267.273123 Z"
        id="Shape"
        transform="translate(137.146250, 138.363123) scale(-1, 1) rotate(-180.000000) translate(-137.146250, -138.363123) ">
    </path>
</svg>