
<svg width="200px" height="171px" preserveAspectRatio="xMinYMin" viewBox="0 0 200 171" version="1.1" xmlns="http://www.w3.org/2000/svg" xmlns:xlink="http://www.w3.org/1999/xlink">
    <!-- Generator: Sketch 49.3 (51167) - http://www.bohemiancoding.com/sketch -->
    <desc>Created with Sketch.</desc>
    <defs></defs>
    <g id="Page-1" stroke="none" stroke-width="1" fill="none" fill-rule="evenodd">
        <rect id="Rectangle" fill-opacity="0" fill="#FFFFFF" x="0" y="0" width="375" height="171"></rect>
        <g id="Group" transform="translate(32.000000, 10.000000)" fill="#000000">
            <path d="M21.424,46.768 C8.688,46.768 0.24,39.664 0.24,26.736 C0.24,14.384 7.92,6.256 21.488,6.256 C27.76,6.256 33.52,7.984 36.848,9.712 L36.848,19.76 L29.872,19.76 L29.872,13.744 C27.568,13.04 24.688,12.4 21.68,12.4 C12.784,12.4 7.728,17.776 7.728,26.608 C7.728,36.016 13.488,40.496 21.808,40.496 C24.624,40.496 27.312,39.92 29.872,39.088 L29.872,30.832 L21.744,30.832 L21.744,25.072 L39.984,25.072 L39.984,30.832 L36.784,30.832 L36.784,42.992 C33.84,44.656 28.336,46.768 21.424,46.768 Z M57.968,46.704 C48.624,46.704 43.376,40.752 43.376,32.176 C43.376,23.6 48.624,17.648 57.968,17.648 C67.312,17.648 72.56,23.6 72.56,32.176 C72.56,40.752 67.312,46.704 57.968,46.704 Z M57.968,41.264 C62.896,41.264 65.072,37.232 65.072,32.176 C65.072,27.12 62.896,23.088 57.968,23.088 C53.04,23.088 50.864,27.12 50.864,32.176 C50.864,37.232 53.04,41.264 57.968,41.264 Z M87.6,46.704 C83.568,46.704 78.96,45.872 76.656,45.168 L76.656,37.36 L82.416,37.36 L82.416,40.816 C83.632,41.136 85.872,41.456 87.536,41.456 C90.8,41.456 92.08,40.176 92.08,38.768 C92.08,33.84 76.912,36.592 76.912,26.224 C76.912,21.168 80.496,17.648 88.048,17.648 C91.824,17.648 95.792,18.544 97.84,19.184 L97.84,26.992 L92.016,26.992 L92.016,23.216 C90.8,22.96 89.136,22.832 88.112,22.832 C84.848,22.832 83.824,24.112 83.824,25.456 C83.824,30.768 99.056,27.568 99.056,38.256 C99.056,42.352 96.88,46.704 87.6,46.704 Z M102.256,58.736 L102.256,53.04 L106.48,53.04 L106.48,23.984 L102.256,23.984 L102.256,18.352 L113.2,18.352 L113.2,21.36 C115.12,19.312 117.68,17.648 121.712,17.648 C129.2,17.648 134,23.344 134,31.984 C134,40.88 128.944,46.704 121.008,46.704 C118,46.704 115.632,45.872 113.712,44.528 L113.712,53.04 L118.768,53.04 L118.768,58.736 L102.256,58.736 Z M119.6,23.152 C117.104,23.152 115.184,24.176 113.712,25.52 L113.712,39.472 C115.056,40.56 116.784,41.2 119.088,41.2 C124.144,41.2 126.576,37.68 126.576,32.24 C126.576,27.376 124.592,23.152 119.6,23.152 Z M152.24,46.704 C142.512,46.704 137.712,40.56 137.712,32.176 C137.712,23.792 142.512,17.648 151.28,17.648 C159.984,17.648 163.952,23.792 163.952,31.408 C163.952,32.368 163.888,33.456 163.696,34.48 L145.008,34.48 C145.712,38.832 148.336,41.2 153.328,41.2 C157.104,41.2 160.048,39.792 162.224,38.64 L162.224,44.208 C160.048,45.424 156.72,46.704 152.24,46.704 Z M151.408,22.896 C147.248,22.896 145.456,25.968 144.944,29.424 L157.168,29.424 C156.912,26.16 155.632,22.896 151.408,22.896 Z M166.896,46 L166.896,40.368 L171.12,40.368 L171.12,6.448 L166.896,6.448 L166.896,0.752 L178.352,0.752 L178.352,40.368 L182.576,40.368 L182.576,46 L166.896,46 Z M21.424,96.768 C8.688,96.768 0.24,89.664 0.24,76.736 C0.24,64.384 7.92,56.256 21.488,56.256 C27.76,56.256 33.52,57.984 36.848,59.712 L36.848,69.76 L29.872,69.76 L29.872,63.744 C27.568,63.04 24.688,62.4 21.68,62.4 C12.784,62.4 7.728,67.776 7.728,76.608 C7.728,86.016 13.488,90.496 21.808,90.496 C24.624,90.496 27.312,89.92 29.872,89.088 L29.872,80.832 L21.744,80.832 L21.744,75.072 L39.984,75.072 L39.984,80.832 L36.784,80.832 L36.784,92.992 C33.84,94.656 28.336,96.768 21.424,96.768 Z M57.904,96.704 C48.176,96.704 43.376,90.56 43.376,82.176 C43.376,73.792 48.176,67.648 56.944,67.648 C65.648,67.648 69.616,73.792 69.616,81.408 C69.616,82.368 69.552,83.456 69.36,84.48 L50.672,84.48 C51.376,88.832 54,91.2 58.992,91.2 C62.768,91.2 65.712,89.792 67.888,88.64 L67.888,94.208 C65.712,95.424 62.384,96.704 57.904,96.704 Z M57.072,72.896 C52.912,72.896 51.12,75.968 50.608,79.424 L62.832,79.424 C62.576,76.16 61.296,72.896 57.072,72.896 Z M73.328,96 L73.328,90.368 L77.552,90.368 L77.552,73.984 L73.328,73.984 L73.328,68.352 L84.592,68.352 L84.592,71.808 C87.28,69.632 90.672,67.648 94.832,67.648 C99.888,67.648 103.088,70.528 103.088,76.224 L103.088,90.368 L107.312,90.368 L107.312,96 L91.632,96 L91.632,90.368 L95.856,90.368 L95.856,76.928 C95.856,74.624 95.024,73.344 92.464,73.344 C89.712,73.344 86.96,74.88 84.784,76.544 L84.784,90.368 L89.008,90.368 L89.008,96 L73.328,96 Z M124.784,96.704 C115.056,96.704 110.256,90.56 110.256,82.176 C110.256,73.792 115.056,67.648 123.824,67.648 C132.528,67.648 136.496,73.792 136.496,81.408 C136.496,82.368 136.432,83.456 136.24,84.48 L117.552,84.48 C118.256,88.832 120.88,91.2 125.872,91.2 C129.648,91.2 132.592,89.792 134.768,88.64 L134.768,94.208 C132.592,95.424 129.264,96.704 124.784,96.704 Z M123.952,72.896 C119.792,72.896 118,75.968 117.488,79.424 L129.712,79.424 C129.456,76.16 128.176,72.896 123.952,72.896 Z M140.208,96 L140.208,90.368 L144.432,90.368 L144.432,73.984 L140.208,73.984 L140.208,68.352 L151.408,68.352 L151.408,73.408 C152.816,70.784 155.568,67.648 160.56,67.648 L161.136,67.648 L161.136,74.944 L159.984,74.944 C155.888,74.944 153.2,75.776 151.664,76.736 L151.664,90.368 L156.464,90.368 L156.464,96 L140.208,96 Z M172.464,96.704 C167.28,96.704 163.44,93.696 163.44,88.256 C163.44,81.6 169.136,79.68 176.304,79.68 L180.848,79.68 L180.848,77.952 C180.848,74.624 179.504,73.152 174.896,73.152 C171.568,73.152 167.856,73.92 165.744,74.56 L165.744,69.184 C168.24,68.416 172.464,67.648 176.432,67.648 C183.856,67.648 188.08,70.272 188.08,77.824 L188.08,90.368 L192.176,90.368 L192.176,96 L181.232,96 L181.232,92.864 C179.44,94.72 176.624,96.704 172.464,96.704 Z M174.64,91.584 C177.328,91.584 179.376,90.112 180.848,88.576 L180.848,84.16 L176.624,84.16 C172.848,84.16 170.672,85.12 170.672,87.936 C170.672,89.664 171.504,91.584 174.64,91.584 Z M206.704,96.704 C199.856,96.704 198.064,93.44 198.064,88.384 L198.064,74.048 L193.264,74.048 L193.264,68.352 L198.064,68.352 L198.064,61.312 L205.296,61.312 L205.296,68.352 L212.848,68.352 L212.848,74.048 L205.296,74.048 L205.296,88 C205.296,90.624 206.832,91.136 209.008,91.136 C210.672,91.136 212.208,90.816 213.296,90.432 L213.296,95.744 C211.632,96.192 209.392,96.704 206.704,96.704 Z M216.56,96 L216.56,90.368 L220.784,90.368 L220.784,73.984 L216.56,73.984 L216.56,68.352 L228.016,68.352 L228.016,90.368 L232.24,90.368 L232.24,96 L216.56,96 Z M219.056,59.392 C219.056,56.64 221.296,54.4 224.048,54.4 C226.8,54.4 229.04,56.64 229.04,59.392 C229.04,62.144 226.8,64.384 224.048,64.384 C221.296,64.384 219.056,62.144 219.056,59.392 Z M250.032,96.704 C240.688,96.704 235.44,90.752 235.44,82.176 C235.44,73.6 240.688,67.648 250.032,67.648 C259.376,67.648 264.624,73.6 264.624,82.176 C264.624,90.752 259.376,96.704 250.032,96.704 Z M250.032,91.264 C254.96,91.264 257.136,87.232 257.136,82.176 C257.136,77.12 254.96,73.088 250.032,73.088 C245.104,73.088 242.928,77.12 242.928,82.176 C242.928,87.232 245.104,91.264 250.032,91.264 Z M268.592,96 L268.592,90.368 L272.816,90.368 L272.816,73.984 L268.592,73.984 L268.592,68.352 L279.856,68.352 L279.856,71.808 C282.544,69.632 285.936,67.648 290.096,67.648 C295.152,67.648 298.352,70.528 298.352,76.224 L298.352,90.368 L302.576,90.368 L302.576,96 L286.896,96 L286.896,90.368 L291.12,90.368 L291.12,76.928 C291.12,74.624 290.288,73.344 287.728,73.344 C284.976,73.344 282.224,74.88 280.048,76.544 L280.048,90.368 L284.272,90.368 L284.272,96 L268.592,96 Z M316.848,96.704 C312.816,96.704 308.208,95.872 305.904,95.168 L305.904,87.36 L311.664,87.36 L311.664,90.816 C312.88,91.136 315.12,91.456 316.784,91.456 C320.048,91.456 321.328,90.176 321.328,88.768 C321.328,83.84 306.16,86.592 306.16,76.224 C306.16,71.168 309.744,67.648 317.296,67.648 C321.072,67.648 325.04,68.544 327.088,69.184 L327.088,76.992 L321.264,76.992 L321.264,73.216 C320.048,72.96 318.384,72.832 317.36,72.832 C314.096,72.832 313.072,74.112 313.072,75.456 C313.072,80.768 328.304,77.568 328.304,88.256 C328.304,92.352 326.128,96.704 316.848,96.704 Z" id="Gospel-Generations"></path>
            <path d="M11.408,146 L11.408,140.112 L17.168,140.112 L17.168,112.912 L9.872,112.912 L9.872,118.864 L3.152,118.864 L3.152,107.024 L38.608,107.024 L38.608,118.864 L31.888,118.864 L31.888,112.912 L24.592,112.912 L24.592,140.112 L30.352,140.112 L30.352,146 L11.408,146 Z M41.872,146 L41.872,140.368 L46.096,140.368 L46.096,123.984 L41.872,123.984 L41.872,118.352 L53.072,118.352 L53.072,123.408 C54.48,120.784 57.232,117.648 62.224,117.648 L62.8,117.648 L62.8,124.944 L61.648,124.944 C57.552,124.944 54.864,125.776 53.328,126.736 L53.328,140.368 L58.128,140.368 L58.128,146 L41.872,146 Z M77.264,146.704 C72.208,146.704 69.008,143.824 69.008,138.128 L69.008,123.984 L64.72,123.984 L64.72,118.352 L76.24,118.352 L76.24,137.424 C76.24,139.728 77.072,141.008 79.632,141.008 C82.384,141.008 85.136,139.536 87.312,137.872 L87.312,123.984 L82.512,123.984 L82.512,118.352 L94.544,118.352 L94.544,140.368 L98.768,140.368 L98.768,146 L87.504,146 L87.504,142.608 C84.816,144.784 81.424,146.704 77.264,146.704 Z M113.296,146.704 C109.264,146.704 104.656,145.872 102.352,145.168 L102.352,137.36 L108.112,137.36 L108.112,140.816 C109.328,141.136 111.568,141.456 113.232,141.456 C116.496,141.456 117.776,140.176 117.776,138.768 C117.776,133.84 102.608,136.592 102.608,126.224 C102.608,121.168 106.192,117.648 113.744,117.648 C117.52,117.648 121.488,118.544 123.536,119.184 L123.536,126.992 L117.712,126.992 L117.712,123.216 C116.496,122.96 114.832,122.832 113.808,122.832 C110.544,122.832 109.52,124.112 109.52,125.456 C109.52,130.768 124.752,127.568 124.752,138.256 C124.752,142.352 122.576,146.704 113.296,146.704 Z M140.624,146.704 C133.776,146.704 131.984,143.44 131.984,138.384 L131.984,124.048 L127.184,124.048 L127.184,118.352 L131.984,118.352 L131.984,111.312 L139.216,111.312 L139.216,118.352 L146.768,118.352 L146.768,124.048 L139.216,124.048 L139.216,138 C139.216,140.624 140.752,141.136 142.928,141.136 C144.592,141.136 146.128,140.816 147.216,140.432 L147.216,145.744 C145.552,146.192 143.312,146.704 140.624,146.704 Z" id="Trust"></path>
        </g>
        <path d="M17.5,19.5 L17.5,152.5" id="Line" stroke="#000000" stroke-width="7" stroke-linecap="square"></path>
    </g>
</svg>