<svg xmlns="http://www.w3.org/2000/svg" viewBox="0 0 697.53 100.2"><defs><style>.cls-1{fill:#FAF8DF;}.cls-2{fill:#1d1d1b;}</style></defs><title>Asset 4</title><g id="Layer_2" data-name="Layer 2"><g id="Layer_1-2" data-name="Layer 1"><path class="cls-1" d="M0,.72H11.3V41H34.2V51.12H0Z"/><path class="cls-1" d="M44.28,25.92C44.28,11.45,52.49.07,68.76.07S93.24,11.45,93.24,25.92,85,51.77,68.76,51.77,44.28,40.32,44.28,25.92Zm37.44,0c0-10.15-4.61-15.62-13-15.62s-13,5.47-13,15.62,4.61,15.63,13,15.63S81.72,36.08,81.72,25.92Z"/><path class="cls-1" d="M107.64.72H121l18.58,32.91h.29V.72h11.23v50.4H137.67L119.09,18.43h-.29V51.12H107.64Z"/><path class="cls-1" d="M168.33.72h17.43c15.05,0,26.07,10.08,26.07,25.2,0,14-10.3,25.2-26.07,25.2H168.33Zm16.78,40.4c9.43,0,15.2-4.68,15.2-15.2s-5.77-15.12-15.2-15.12h-6.19V41.12Z"/><path class="cls-1" d="M223.34,25.92c0-14.47,8.21-25.85,24.48-25.85s24.49,11.38,24.49,25.85S264,51.77,247.82,51.77,223.34,40.32,223.34,25.92Zm37.44,0c0-10.15-4.6-15.62-13-15.62s-13,5.47-13,15.62,4.61,15.63,13,15.63S260.78,36.08,260.78,25.92Z"/><path class="cls-1" d="M286.7.72H300L318.6,33.63h.29V.72h11.23v50.4H316.73L298.15,18.43h-.29V51.12H286.7Z"/><path class="cls-1" d="M344.88,22.68c0-4,2.23-6.41,6.48-6.41,4.1,0,6.48,2.45,6.48,6.41s-2.38,6.48-6.48,6.48C347.11,29.16,344.88,26.71,344.88,22.68Zm0,22.61c0-4,2.23-6.41,6.48-6.41,4.1,0,6.48,2.45,6.48,6.41s-2.38,6.48-6.48,6.48C347.11,51.77,344.88,49.32,344.88,45.29Z"/><path class="cls-1" d="M383.18.72h8.43l-8.72,42.77h23.77l-1.52,7.63H373Z"/><path class="cls-1" d="M431.64.72h8.49l-10.22,50.4h-8.5Z"/><path class="cls-1" d="M456.48,1.44l.14-.72h9l5.54,39.82h.29L493,.72h9.72l-.14.72L474.19,51.12h-9.51Z"/><path class="cls-1" d="M519.19.72h8.49l-10.22,50.4H509Z"/><path class="cls-1" d="M548.92.72h9l15.77,37H574l7.56-37h8.35l-10.22,50.4H570.6L554.76,14.33h-.29L547,51.12H538.7Z"/><path class="cls-1" d="M602.35,32c0-17.21,10.15-32,28.51-32,12.53,0,19.3,7.49,18.29,17.43h-8.64c.36-5.4-2.66-9.65-10.59-9.65-13,0-18.79,12.17-18.79,23.18,0,7.49,3.31,13,11.38,13,8.93,0,13.89-5.47,15.69-12.24H626.47L628,24.34h20.45l-1,4.82c-2.81,13.76-11.66,22.61-26,22.61C608.83,51.77,602.35,43.56,602.35,32Z"/><path class="cls-1" d="M671.9,33.92C673,27.58,676,25.27,680.76,22l2.59-1.8c3.6-2.44,5.4-4.32,5.4-7.63,0-2.88-1.87-5.33-6.34-5.33-5.47,0-8.78,3-9.72,7.92h-8.21C665.63,6.84,672,0,683.78,0c8.57,0,13.75,4.82,13.75,11.38,0,5.61-3,9.72-8,13.1L686,26.86c-3.67,2.45-5.47,3.81-6.12,7.13l-.21,1.15h-8Zm-3.67,13.82c0-3.67,2.23-6.48,6.41-6.48,2.8,0,4.24,1.66,4.24,4.1a6.07,6.07,0,0,1-6.4,6.41C669.67,51.77,668.23,50.19,668.23,47.74Z"/><polyline class="cls-1" points="350.43 100.2 350.43 69.13 675.33 69.13 675.33 100.2"/><path class="cls-2" d="M363.87,86.87l-1.2,3h.83a.68.68,0,1,1,0,1.36h-3.29a.68.68,0,1,1,0-1.36H361l4.94-12h-1.32a.68.68,0,0,1-.72-.68.69.69,0,0,1,.72-.68h2.64a.73.73,0,0,1,.69.5l5.27,12.89h.76a.68.68,0,1,1,0,1.36h-3.29a.68.68,0,1,1,0-1.36h.81l-1.18-3Zm3.2-8.13-2.71,6.77h5.42Z"/><path class="cls-2" d="M381.68,83.64c0,2.31,6.09,1.45,6.09,5,0,2-1.74,2.89-3.94,2.89a5.35,5.35,0,0,1-4-1.58.61.61,0,0,1-.17-.42.66.66,0,0,1,.68-.63.72.72,0,0,1,.51.22,4,4,0,0,0,2.94,1.07c1.32,0,2.46-.41,2.46-1.55,0-2.26-6.1-1.36-6.1-5,0-1.81,1.58-2.65,3.55-2.65a4.35,4.35,0,0,1,3.52,1.41.6.6,0,0,1,.16.41.66.66,0,0,1-.67.64.73.73,0,0,1-.49-.2,3.38,3.38,0,0,0-2.52-.92C382.69,82.33,381.68,82.64,381.68,83.64Z"/><path class="cls-2" d="M394.38,91.51c-3,0-4.87-1.69-4.87-5.28S391.39,81,394.38,81s4.86,1.67,4.86,5.26S397.39,91.51,394.38,91.51Zm3.36-5.28c0-2.76-1.23-4-3.36-4s-3.36,1.23-3.36,4,1.22,4,3.36,4S397.74,89,397.74,86.23Z"/><path class="cls-2" d="M404.09,91.4c-1.46,0-2.25-1-2.25-2.56V76.94h-1a.66.66,0,1,1,0-1.32h1.76a.68.68,0,0,1,.7.66V88.84c0,.81.25,1.25.83,1.25h.58a.66.66,0,1,1,0,1.31Z"/><path class="cls-2" d="M407.08,91.23a.66.66,0,1,1,0-1.32h1V82.59h-1a.66.66,0,1,1,0-1.31h1.72a.71.71,0,0,1,.74.7v7.93h1a.66.66,0,1,1,0,1.32Zm.81-13a.91.91,0,1,1,.91.85A.8.8,0,0,1,407.89,78.19Z"/><path class="cls-2" d="M421.27,91.23a.67.67,0,0,1-.7-.66V90a3.63,3.63,0,0,1-3.17,1.51c-3,0-4.69-1.77-4.69-5.28S414.38,81,417.37,81a4,4,0,0,1,3.15,1.43V76.94h-1a.66.66,0,1,1,0-1.32h1.72a.72.72,0,0,1,.74.71V89.91H423a.66.66,0,1,1,0,1.32Zm-.75-3.88V84.17a3.49,3.49,0,0,0-3-1.93c-2.11,0-3.27,1.29-3.27,4s1.13,4,3.27,4A2.87,2.87,0,0,0,420.52,87.35Z"/><path class="cls-2" d="M438,91.23a.66.66,0,1,1,0-1.32h1V85.13c0-1.73-.53-2.91-2.78-2.91a2.8,2.8,0,0,0-3.08,3.07v4.62h1a.66.66,0,1,1,0,1.32h-3.43a.66.66,0,1,1,0-1.32h1v-13h-.92a.66.66,0,1,1,0-1.32h1.71a.69.69,0,0,1,.7.62V82.5A3.42,3.42,0,0,1,436.15,81c3.57,0,4.26,2,4.26,3.88v5.06h1a.66.66,0,1,1,0,1.32Z"/><path class="cls-2" d="M448.18,91.51c-3,0-4.87-1.69-4.87-5.28S445.19,81,448.18,81s4.87,1.67,4.87,5.26S451.19,91.51,448.18,91.51Zm3.36-5.28c0-2.76-1.23-4-3.36-4s-3.36,1.23-3.36,4,1.23,4,3.36,4S451.54,89,451.54,86.23Z"/><path class="cls-2" d="M455.18,95.63a.67.67,0,0,1-.69-.66.66.66,0,0,1,.69-.65h1V82.59h-1a.66.66,0,1,1,0-1.31h1.76a.66.66,0,0,1,.7.66v.56A3.7,3.7,0,0,1,460.79,81c3,0,4.84,1.67,4.84,5.26s-1.83,5.28-4.84,5.28A3.76,3.76,0,0,1,457.64,90v4.34h1.2a.66.66,0,0,1,.7.65.67.67,0,0,1-.7.66Zm5.61-5.39c2.13,0,3.34-1.27,3.34-4s-1.25-4-3.39-4c-1.71,0-3.15,1.14-3.15,4S459,90.24,460.79,90.24Z"/><path class="cls-2" d="M472.24,81a4.05,4.05,0,0,1,4.43,4.27c0,.64,0,1.41-.93,1.41H469a3.29,3.29,0,0,0,3.5,3.57,4.4,4.4,0,0,0,2.78-.94.68.68,0,0,1,.42-.14.66.66,0,0,1,.67.64.63.63,0,0,1-.25.5,5.32,5.32,0,0,1-3.62,1.23c-3.08,0-5-1.6-5-5.28C467.47,82.86,469.23,81,472.24,81Zm0,1.27A3.07,3.07,0,0,0,469,85.42h6.24C475.21,83.84,474.63,82.24,472.24,82.24Z"/><path class="cls-2" d="M484.13,91.23a.66.66,0,1,1,0-1.32h1V82.59h-1a.66.66,0,1,1,0-1.31h1.72a.71.71,0,0,1,.74.7v7.93h1a.66.66,0,1,1,0,1.32Zm.81-13a.91.91,0,1,1,.91.85A.8.8,0,0,1,484.94,78.19Z"/><path class="cls-2" d="M490.25,91.23a.66.66,0,1,1,0-1.32h1V82.59h-1a.66.66,0,1,1,0-1.31H492a.66.66,0,0,1,.7.66v.56A3.43,3.43,0,0,1,495.79,81c3.57,0,4.27,2,4.27,3.88v5.06h1a.66.66,0,1,1,0,1.32H497.6a.66.66,0,1,1,0-1.32h1V85.13c0-1.73-.53-2.91-2.78-2.91a2.8,2.8,0,0,0-3.08,3.07v4.62h1a.66.66,0,1,1,0,1.32Z"/><path class="cls-2" d="M517.35,81.28a.67.67,0,0,1,.69.57v8.06h1a.66.66,0,1,1,0,1.32H517.3a.72.72,0,0,1-.74-.71v-.65a4,4,0,0,1-3.38,1.64c-3.41,0-4-2.15-4-4V82.59h-1a.66.66,0,1,1,0-1.31H510c.33,0,.7.24.7.57v5.3c0,1.73.51,3,2.59,3A3,3,0,0,0,516.56,87V82.59h-1a.66.66,0,1,1,0-1.31Z"/><path class="cls-2" d="M521.66,91.23a.66.66,0,1,1,0-1.32h1V82.59h-1a.66.66,0,1,1,0-1.31h1.76a.66.66,0,0,1,.7.66v.56A3.43,3.43,0,0,1,527.2,81c3.57,0,4.27,2,4.27,3.88v5.06h1a.66.66,0,1,1,0,1.32H529a.66.66,0,1,1,0-1.32h1V85.13c0-1.73-.53-2.91-2.78-2.91a2.8,2.8,0,0,0-3.08,3.07v4.62h1a.66.66,0,1,1,0,1.32Z"/><path class="cls-2" d="M539.14,81a4.47,4.47,0,0,1,3.57,1.51.63.63,0,0,1-.51,1,.71.71,0,0,1-.56-.26,3,3,0,0,0-2.5-1c-2.13,0-3.27,1.29-3.27,4s1.14,4,3.27,4a4.39,4.39,0,0,0,2.69-.94.72.72,0,0,1,.44-.16.66.66,0,0,1,.67.64.68.68,0,0,1-.3.55,5.48,5.48,0,0,1-3.5,1.18c-3,0-4.77-1.69-4.77-5.28S536.15,81,539.14,81Z"/><path class="cls-2" d="M549.25,81a4,4,0,0,1,4.42,4.27c0,.64,0,1.41-.92,1.41H546a3.29,3.29,0,0,0,3.5,3.57,4.42,4.42,0,0,0,2.78-.94.68.68,0,0,1,1.09.5.64.64,0,0,1-.26.5,5.28,5.28,0,0,1-3.61,1.23c-3.08,0-5-1.6-5-5.28C544.47,82.86,546.23,81,549.25,81Zm0,1.27A3.07,3.07,0,0,0,546,85.42h6.23C552.21,83.84,551.63,82.24,549.25,82.24Z"/><path class="cls-2" d="M555.9,91.23a.66.66,0,1,1,0-1.32h1V82.59h-1a.66.66,0,1,1,0-1.31h1.72a.68.68,0,0,1,.74.7v.79a3.4,3.4,0,0,1,3.22-1.8.68.68,0,1,1,0,1.36c-2.13,0-3.22,1.45-3.22,3.46v4.12h2a.66.66,0,1,1,0,1.32Z"/><path class="cls-2" d="M564.66,79a.74.74,0,0,1,.74-.7.73.73,0,0,1,.75.7v2.3h1.5a.66.66,0,1,1,0,1.31h-1.5v6a1.39,1.39,0,0,0,1.53,1.45.66.66,0,1,1,0,1.31,2.71,2.71,0,0,1-3-2.76v-6h-.9a.66.66,0,1,1,0-1.31h.9Z"/><path class="cls-2" d="M577.67,91.23a.56.56,0,0,1-.54-.57v-.73a4,4,0,0,1-3.43,1.58c-2.46,0-4-1.12-4-3.13s1.55-3.09,4.06-3.09H577V84.7c0-1.49-1-2.41-2.74-2.41a3.31,3.31,0,0,0-2.69,1.11.77.77,0,0,1-.6.31.66.66,0,0,1-.67-.64.65.65,0,0,1,.11-.37A4.41,4.41,0,0,1,574.28,81c2.69,0,4.17,1.49,4.17,3.73v5.21h1a.66.66,0,1,1,0,1.32Zm-3.83-1A2.89,2.89,0,0,0,577,87.43v-.92h-3.27c-1.51,0-2.55.6-2.55,1.87S572,90.24,573.84,90.24Z"/><path class="cls-2" d="M581.86,91.23a.66.66,0,1,1,0-1.32h1V82.59h-1a.66.66,0,1,1,0-1.31h1.72a.71.71,0,0,1,.74.7v7.93h1a.66.66,0,1,1,0,1.32Zm.81-13a.91.91,0,1,1,.91.85A.8.8,0,0,1,582.67,78.19Z"/><path class="cls-2" d="M588,91.23a.66.66,0,1,1,0-1.32h1V82.59h-1a.66.66,0,1,1,0-1.31h1.76a.66.66,0,0,1,.7.66v.56A3.43,3.43,0,0,1,593.52,81c3.57,0,4.27,2,4.27,3.88v5.06h1a.66.66,0,1,1,0,1.32h-3.43a.66.66,0,1,1,0-1.32h1V85.13c0-1.73-.53-2.91-2.78-2.91a2.8,2.8,0,0,0-3.08,3.07v4.62h1a.66.66,0,1,1,0,1.32Z"/><path class="cls-2" d="M607,79a.74.74,0,0,1,.74-.7.73.73,0,0,1,.75.7v2.3H610a.66.66,0,1,1,0,1.31h-1.5v6A1.39,1.39,0,0,0,610,90.09a.66.66,0,1,1,0,1.31,2.71,2.71,0,0,1-3-2.76v-6h-.9a.66.66,0,1,1,0-1.31h.9Z"/><path class="cls-2" d="M612.78,91.23a.66.66,0,1,1,0-1.32h1V82.59h-1a.66.66,0,1,1,0-1.31h1.72a.71.71,0,0,1,.74.7v7.93h1a.66.66,0,1,1,0,1.32Zm.82-13a.9.9,0,1,1,.9.85A.8.8,0,0,1,613.6,78.19Z"/><path class="cls-2" d="M618.9,91.23a.66.66,0,1,1,0-1.32h1V82.59h-1a.66.66,0,1,1,0-1.31h1.72a.71.71,0,0,1,.74.7v.52a3.29,3.29,0,0,1,3-1.53c1.9,0,3.13.66,3.69,1.53A3.78,3.78,0,0,1,631.44,81c3.57,0,4.38,2,4.38,3.88v5.06h1a.66.66,0,1,1,0,1.32h-3.43a.66.66,0,1,1,0-1.32h1V85.13c0-1.73-.65-2.91-2.9-2.91-2,0-2.89,1-2.89,2.63v5.06h1a.66.66,0,1,1,0,1.32h-3.43a.66.66,0,1,1,0-1.32h1V85.13c0-1.73-.55-2.91-2.76-2.91a2.74,2.74,0,0,0-2.94,3.07v4.62h1a.66.66,0,1,1,0,1.32Z"/><path class="cls-2" d="M643.48,81a4,4,0,0,1,4.42,4.27c0,.64,0,1.41-.92,1.41h-6.77a3.29,3.29,0,0,0,3.5,3.57,4.42,4.42,0,0,0,2.78-.94.68.68,0,0,1,1.09.5.64.64,0,0,1-.26.5,5.28,5.28,0,0,1-3.61,1.23c-3.09,0-5-1.6-5-5.28C638.7,82.86,640.46,81,643.48,81Zm0,1.27a3.07,3.07,0,0,0-3.27,3.18h6.23C646.44,83.84,645.86,82.24,643.48,82.24Z"/><path class="cls-2" d="M651.31,83.64c0,2.31,6.1,1.45,6.1,5,0,2-1.74,2.89-3.94,2.89a5.39,5.39,0,0,1-4-1.58.63.63,0,0,1,.51-1,.7.7,0,0,1,.51.22,4.06,4.06,0,0,0,3,1.07c1.32,0,2.45-.41,2.45-1.55,0-2.26-6.09-1.36-6.09-5,0-1.81,1.57-2.65,3.54-2.65a4.36,4.36,0,0,1,3.53,1.41.6.6,0,0,1,.16.41.66.66,0,0,1-.67.64.72.72,0,0,1-.49-.2,3.4,3.4,0,0,0-2.53-.92C652.33,82.33,651.31,82.64,651.31,83.64Z"/><path class="cls-2" d="M659.4,90.37a1.09,1.09,0,0,1,2.18,0c0,.72-.42,1-1.09,1S659.4,91.09,659.4,90.37Z"/></g></g></svg>