<?xml version="1.0" encoding="UTF-8"?>
<svg width="289px" height="369px" viewBox="0 0 289 369" version="1.1" xmlns="http://www.w3.org/2000/svg" xmlns:xlink="http://www.w3.org/1999/xlink">
    <!-- Generator: Sketch 49.3 (51167) - http://www.bohemiancoding.com/sketch -->
    <title>Group + Group + Group + Rectangle + Rectangle + Rectangle + Rectangle + Rectangle + Rectangle Mask</title>
    <desc>Created with Sketch.</desc>
    <defs>
        <path d="M142.463592,0.0100122611 C147.086463,0.131923986 150.889227,0.542244899 153.871884,1.240975 C166.144564,4.1160266 180.618334,11.6064592 186.326022,15.7071702 C216.778831,37.5861108 233.132431,65.7287942 244.625851,84.4426261 C256.506572,103.78707 267.114573,135.564514 277.819088,174.840834 C279.255436,180.110989 286.041971,209.145708 284.203482,237.876377 C283.330348,251.521116 280.27777,271.331302 273.782845,287.555404 C266.601912,305.493134 255.674598,319.550998 249.054236,327.202646 C238.216125,339.729063 217.720682,356.208637 190.733332,365.601193 C184.166196,367.88679 174.54217,370.681124 161.834925,372.396024 C157.945237,372.920956 151.488125,373.387409 142.463591,373.795385 L142.463591,373.81381 C142.395079,373.810752 142.326713,373.807691 142.258492,373.804627 C142.190272,373.807691 142.121905,373.810752 142.053394,373.81381 L142.053394,373.795388 C133.028859,373.387409 126.571748,372.920956 122.68206,372.396024 C109.974815,370.681124 100.350788,367.88679 93.7836533,365.601193 C66.796303,356.208637 46.3008594,339.729063 35.4627488,327.202646 C28.8423868,319.550998 17.915073,305.493134 10.7341394,287.555404 C4.23921481,271.331302 1.18663693,251.521116 0.313503212,237.876377 C-1.52498663,209.145708 5.26154852,180.110989 6.69789645,174.840834 C17.4024121,135.564514 28.0104129,103.78707 39.8911337,84.4426261 C51.3845533,65.7287942 67.7381539,37.5861108 98.1909623,15.7071702 C103.89865,11.6064592 118.372421,4.1160266 130.645101,1.240975 C133.627758,0.542244899 137.430521,0.131923986 142.053393,0.0100122611 L142.053394,0 C142.121937,0.00153985026 142.190303,0.00314180002 142.258492,0.00480584929 C142.326682,0.00314180002 142.395048,0.00153985026 142.463591,0 L142.463591,0.0100066518 Z" id="path-1"></path>
    </defs>
    <g id="Egg3" stroke="none" stroke-width="1" fill="none" fill-rule="evenodd">
        <g id="Group-+-Group-+-Group-+-Rectangle-+-Rectangle-+-Rectangle-+-Rectangle-+-Rectangle-+-Rectangle-Mask" transform="translate(154.500000, 186.000000) rotate(165.000000) translate(-154.500000, -186.000000) translate(12.000000, -1.000000)">
            <mask id="mask-2" fill="white">
                <use xlink:href="#path-1"></use>
            </mask>
            <use id="Mask" fill="#FF5757" xlink:href="#path-1"></use>
            <g id="Group" mask="url(#mask-2)" fill="#F7F7F7">
                <g transform="translate(4.000000, 50.000000)">
                    <circle id="Oval-Copy-7" cx="267.5" cy="8.5" r="8.5"></circle>
                    <circle id="Oval-Copy-6" cx="230.5" cy="8.5" r="8.5"></circle>
                    <circle id="Oval-Copy-5" cx="193.5" cy="8.5" r="8.5"></circle>
                    <circle id="Oval-Copy-4" cx="156.5" cy="8.5" r="8.5"></circle>
                    <circle id="Oval-Copy-3" cx="119.5" cy="8.5" r="8.5"></circle>
                    <circle id="Oval-Copy-2" cx="82.5" cy="8.5" r="8.5"></circle>
                    <circle id="Oval-Copy" cx="45.5" cy="8.5" r="8.5"></circle>
                </g>
            </g>
            <g id="Group" mask="url(#mask-2)" fill="#F7F7F7">
                <g transform="translate(4.000000, 174.000000)">
                    <circle id="Oval-Copy-7" cx="267.5" cy="8.5" r="8.5"></circle>
                    <circle id="Oval-Copy-6" cx="230.5" cy="8.5" r="8.5"></circle>
                    <circle id="Oval-Copy-5" cx="193.5" cy="8.5" r="8.5"></circle>
                    <circle id="Oval-Copy-4" cx="156.5" cy="8.5" r="8.5"></circle>
                    <circle id="Oval-Copy-3" cx="119.5" cy="8.5" r="8.5"></circle>
                    <circle id="Oval-Copy-2" cx="82.5" cy="8.5" r="8.5"></circle>
                    <circle id="Oval-Copy" cx="45.5" cy="8.5" r="8.5"></circle>
                    <circle id="Oval" cx="8.5" cy="8.5" r="8.5"></circle>
                </g>
            </g>
            <g id="Group" mask="url(#mask-2)" fill="#F7F7F7">
                <g transform="translate(4.000000, 295.000000)">
                    <circle id="Oval-Copy-7" cx="267.5" cy="8.5" r="8.5"></circle>
                    <circle id="Oval-Copy-6" cx="230.5" cy="8.5" r="8.5"></circle>
                    <circle id="Oval-Copy-5" cx="193.5" cy="8.5" r="8.5"></circle>
                    <circle id="Oval-Copy-4" cx="156.5" cy="8.5" r="8.5"></circle>
                    <circle id="Oval-Copy-3" cx="119.5" cy="8.5" r="8.5"></circle>
                    <circle id="Oval-Copy-2" cx="82.5" cy="8.5" r="8.5"></circle>
                    <circle id="Oval-Copy" cx="45.5" cy="8.5" r="8.5"></circle>
                    <circle id="Oval" cx="8.5" cy="8.5" r="8.5"></circle>
                </g>
            </g>
            <rect id="Rectangle" fill="#FF67C4" mask="url(#mask-2)" x="-86" y="125" width="426" height="31"></rect>
            <rect id="Rectangle" fill="#FF67C4" mask="url(#mask-2)" x="-71" y="207" width="426" height="31"></rect>
            <rect id="Rectangle" fill="#F7F7F7" mask="url(#mask-2)" x="-71" y="247" width="426" height="31"></rect>
            <rect id="Rectangle" fill="#F7F7F7" mask="url(#mask-2)" x="-86" y="84" width="426" height="31"></rect>
            <rect id="Rectangle" fill="#FF67C4" mask="url(#mask-2)" x="-71" y="330" width="426" height="11"></rect>
            <rect id="Rectangle" fill="#FF67C4" mask="url(#mask-2)" x="-138" y="23" width="426" height="11"></rect>
        </g>
    </g>
</svg>