<?xml version="1.0" encoding="UTF-8"?>
<svg width="338px" height="322px" viewBox="0 0 338 322" version="1.1" xmlns="http://www.w3.org/2000/svg" xmlns:xlink="http://www.w3.org/1999/xlink">
    <!-- Generator: Sketch 49.3 (51167) - http://www.bohemiancoding.com/sketch -->
    <title>Rectangle 4 + Rectangle 4 + Path 5 + Path 6 + Path 6 + Oval 4 + Oval 4 + Oval 4 + Oval 4 + Oval 4 + Oval 4 Mask</title>
    <desc>Created with Sketch.</desc>
    <defs>
        <path d="M142.463592,0.0100122611 C147.086463,0.131923986 150.889227,0.542244899 153.871884,1.240975 C166.144564,4.1160266 180.618334,11.6064592 186.326022,15.7071702 C216.778831,37.5861108 233.132431,65.7287942 244.625851,84.4426261 C256.506572,103.78707 267.114573,135.564514 277.819088,174.840834 C279.255436,180.110989 286.041971,209.145708 284.203482,237.876377 C283.330348,251.521116 280.27777,271.331302 273.782845,287.555404 C266.601912,305.493134 255.674598,319.550998 249.054236,327.202646 C238.216125,339.729063 217.720682,356.208637 190.733332,365.601193 C184.166196,367.88679 174.54217,370.681124 161.834925,372.396024 C157.945237,372.920956 151.488125,373.387409 142.463591,373.795385 L142.463591,373.81381 C142.395079,373.810752 142.326713,373.807691 142.258492,373.804627 C142.190272,373.807691 142.121905,373.810752 142.053394,373.81381 L142.053394,373.795388 C133.028859,373.387409 126.571748,372.920956 122.68206,372.396024 C109.974815,370.681124 100.350788,367.88679 93.7836533,365.601193 C66.796303,356.208637 46.3008594,339.729063 35.4627488,327.202646 C28.8423868,319.550998 17.915073,305.493134 10.7341394,287.555404 C4.23921481,271.331302 1.18663693,251.521116 0.313503212,237.876377 C-1.52498663,209.145708 5.26154852,180.110989 6.69789645,174.840834 C17.4024121,135.564514 28.0104129,103.78707 39.8911337,84.4426261 C51.3845533,65.7287942 67.7381539,37.5861108 98.1909623,15.7071702 C103.89865,11.6064592 118.372421,4.1160266 130.645101,1.240975 C133.627758,0.542244899 137.430521,0.131923986 142.053393,0.0100122611 L142.053394,0 C142.121937,0.00153985026 142.190303,0.00314180002 142.258492,0.00480584929 C142.326682,0.00314180002 142.395048,0.00153985026 142.463591,0 L142.463591,0.0100066518 Z" id="path-1"></path>
    </defs>
    <g id="Egg6" stroke="none" stroke-width="1" fill="none" fill-rule="evenodd">
        <g id="Rectangle-4-+-Rectangle-4-+-Path-5-+-Path-6-+-Path-6-+-Oval-4-+-Oval-4-+-Oval-4-+-Oval-4-+-Oval-4-+-Oval-4-Mask" transform="translate(160.500000, 172.000000) rotate(-130.000000) translate(-160.500000, -172.000000) translate(18.000000, -15.000000)">
            <mask id="mask-2" fill="white">
                <use xlink:href="#path-1"></use>
            </mask>
            <use id="Mask" fill="#FF67C4" xlink:href="#path-1"></use>
            <rect id="Rectangle-4" fill="#FF5757" mask="url(#mask-2)" x="-17" y="215" width="313" height="12"></rect>
            <rect id="Rectangle-4" fill="#FF5757" mask="url(#mask-2)" x="-18" y="124" width="313" height="12"></rect>
            <path d="M11.7127299,73.5334962 C21.7776886,79.0387388 31.1351068,94.5236889 49.9609881,94.5236889 C71.7693469,94.5236889 74.0826261,76.8666163 94.710241,76.8666163 C116.169972,76.8666163 119.799082,94.5236889 141.252003,94.5236889 C162.049746,94.5236889 165.681113,76.8666163 184.99064,76.8666163 C205.329927,76.8666163 206.871716,92.1379694 229.302597,94.5236889 C236.581739,95.297889 250.824413,88.3011581 272.030617,73.5334962" id="Path-6" stroke="#F7F7F7" stroke-width="17" mask="url(#mask-2)"></path>
            <path d="M-40.1561804,279.977361 C-21.6201377,264.8812 -5.56043702,257.33312 8.02292166,257.33312 C30.1960294,257.33312 27.4223768,274.990193 46.2482582,274.990193 C68.056617,274.990193 70.3698961,257.33312 90.9975111,257.33312 C112.457242,257.33312 116.086352,274.990193 137.539273,274.990193 C158.337016,274.990193 161.968383,257.33312 181.27791,257.33312 C201.617197,257.33312 207.337054,274.990193 225.589867,274.990193 C247.753619,274.990193 251.924096,257.466582 272.409472,257.33312 C294.016611,257.19235 315.02813,274.990193 316.368772,274.990193" id="Path-6" stroke="#F7F7F7" stroke-width="17" mask="url(#mask-2)"></path>
            <circle id="Oval-4" fill="#F7F7F7" mask="url(#mask-2)" cx="112.5" cy="175.5" r="11.5"></circle>
            <circle id="Oval-4" fill="#F7F7F7" mask="url(#mask-2)" cx="167.5" cy="175.5" r="11.5"></circle>
            <circle id="Oval-4" fill="#F7F7F7" mask="url(#mask-2)" cx="222.5" cy="175.5" r="11.5"></circle>
            <circle id="Oval-4" fill="#F7F7F7" mask="url(#mask-2)" cx="277.5" cy="176.5" r="11.5"></circle>
            <circle id="Oval-4" fill="#F7F7F7" mask="url(#mask-2)" cx="56.5" cy="175.5" r="11.5"></circle>
            <circle id="Oval-4" fill="#F7F7F7" mask="url(#mask-2)" cx="1.5" cy="175.5" r="11.5"></circle>
        </g>
    </g>
</svg>