<?xml version="1.0" encoding="UTF-8"?>
<svg width="322px" height="339px" viewBox="0 0 322 339" version="1.1" xmlns="http://www.w3.org/2000/svg" xmlns:xlink="http://www.w3.org/1999/xlink">
    <!-- Generator: Sketch 49.3 (51167) - http://www.bohemiancoding.com/sketch -->
    <title>Rectangle 3 + Combined Shape + Combined Shape + Group 2 + Group 2 + Group 2 Mask</title>
    <desc>Created with Sketch.</desc>
    <defs>
        <path d="M142.463592,0.0100122611 C147.086463,0.131923986 150.889227,0.542244899 153.871884,1.240975 C166.144564,4.1160266 180.618334,11.6064592 186.326022,15.7071702 C216.778831,37.5861108 233.132431,65.7287942 244.625851,84.4426261 C256.506572,103.78707 267.114573,135.564514 277.819088,174.840834 C279.255436,180.110989 286.041971,209.145708 284.203482,237.876377 C283.330348,251.521116 280.27777,271.331302 273.782845,287.555404 C266.601912,305.493134 255.674598,319.550998 249.054236,327.202646 C238.216125,339.729063 217.720682,356.208637 190.733332,365.601193 C184.166196,367.88679 174.54217,370.681124 161.834925,372.396024 C157.945237,372.920956 151.488125,373.387409 142.463591,373.795385 L142.463591,373.81381 C142.395079,373.810752 142.326713,373.807691 142.258492,373.804627 C142.190272,373.807691 142.121905,373.810752 142.053394,373.81381 L142.053394,373.795388 C133.028859,373.387409 126.571748,372.920956 122.68206,372.396024 C109.974815,370.681124 100.350788,367.88679 93.7836533,365.601193 C66.796303,356.208637 46.3008594,339.729063 35.4627488,327.202646 C28.8423868,319.550998 17.915073,305.493134 10.7341394,287.555404 C4.23921481,271.331302 1.18663693,251.521116 0.313503212,237.876377 C-1.52498663,209.145708 5.26154852,180.110989 6.69789645,174.840834 C17.4024121,135.564514 28.0104129,103.78707 39.8911337,84.4426261 C51.3845533,65.7287942 67.7381539,37.5861108 98.1909623,15.7071702 C103.89865,11.6064592 118.372421,4.1160266 130.645101,1.240975 C133.627758,0.542244899 137.430521,0.131923986 142.053393,0.0100122611 L142.053394,0 C142.121937,0.00153985026 142.190303,0.00314180002 142.258492,0.00480584929 C142.326682,0.00314180002 142.395048,0.00153985026 142.463591,0 L142.463591,0.0100066518 Z" id="path-1"></path>
    </defs>
    <g id="Egg1" stroke="none" stroke-width="1" fill="none" fill-rule="evenodd">
        <g id="Rectangle-3-+-Combined-Shape-+-Combined-Shape-+-Group-2-+-Group-2-+-Group-2-Mask" transform="translate(149.500000, 178.000000) rotate(-140.000000) translate(-149.500000, -178.000000) translate(7.000000, -9.000000)">
            <mask id="mask-2" fill="white">
                <use xlink:href="#path-1"></use>
            </mask>
            <use id="Mask" fill="#FFBD58" xlink:href="#path-1"></use>
            <rect id="Rectangle-3" fill="#FFDE5A" mask="url(#mask-2)" x="-90" y="117" width="438" height="139"></rect>
            <path d="M7.30974503,86 C8.5728816,90.0079774 13.5511461,93 19.5,93 C25.1843828,93 29.9825578,90.2680994 31.5,86.5283562 C33.0174422,90.2680994 37.8156172,93 43.5,93 C49.4488539,93 54.4271184,90.0079774 55.690255,86 L56.309745,86 C57.5728816,90.0079774 62.5511461,93 68.5,93 C74.4488539,93 79.4271184,90.0079774 80.690255,86 L81.309745,86 C82.5728816,90.0079774 87.5511461,93 93.5,93 C99.4488539,93 104.427118,90.0079774 105.690255,86 L106.309745,86 C107.572882,90.0079774 112.551146,93 118.5,93 C124.448854,93 129.427118,90.0079774 130.690255,86 L131.309745,86 C132.572882,90.0079774 137.551146,93 143.5,93 C149.448854,93 154.427118,90.0079774 155.690255,86 L156.309745,86 C157.572882,90.0079774 162.551146,93 168.5,93 C174.448854,93 179.427118,90.0079774 180.690255,86 L181.309745,86 C182.572882,90.0079774 187.551146,93 193.5,93 C199.448854,93 204.427118,90.0079774 205.690255,86 L206.309745,86 C207.572882,90.0079774 212.551146,93 218.5,93 C224.448854,93 229.427118,90.0079774 230.690255,86 L231.309745,86 C232.572882,90.0079774 237.551146,93 243.5,93 C249.184383,93 253.982558,90.2680994 255.5,86.5283562 C257.017442,90.2680994 261.815617,93 267.5,93 C273.448854,93 278.427118,90.0079774 279.690255,86 L287,86 L287,117 L2,117 L2,86 L7.30974503,86 Z" id="Combined-Shape" fill="#F7F7F7" mask="url(#mask-2)"></path>
            <path d="M7.30974503,257 C8.5728816,261.007977 13.5511461,264 19.5,264 C25.1843828,264 29.9825578,261.268099 31.5,257.528356 C33.0174422,261.268099 37.8156172,264 43.5,264 C49.4488539,264 54.4271184,261.007977 55.690255,257 L56.309745,257 C57.5728816,261.007977 62.5511461,264 68.5,264 C74.4488539,264 79.4271184,261.007977 80.690255,257 L81.309745,257 C82.5728816,261.007977 87.5511461,264 93.5,264 C99.4488539,264 104.427118,261.007977 105.690255,257 L106.309745,257 C107.572882,261.007977 112.551146,264 118.5,264 C124.448854,264 129.427118,261.007977 130.690255,257 L131.309745,257 C132.572882,261.007977 137.551146,264 143.5,264 C149.448854,264 154.427118,261.007977 155.690255,257 L156.309745,257 C157.572882,261.007977 162.551146,264 168.5,264 C174.448854,264 179.427118,261.007977 180.690255,257 L181.309745,257 C182.572882,261.007977 187.551146,264 193.5,264 C199.448854,264 204.427118,261.007977 205.690255,257 L206.309745,257 C207.572882,261.007977 212.551146,264 218.5,264 C224.448854,264 229.427118,261.007977 230.690255,257 L231.309745,257 C232.572882,261.007977 237.551146,264 243.5,264 C249.184383,264 253.982558,261.268099 255.5,257.528356 C257.017442,261.268099 261.815617,264 267.5,264 C273.448854,264 278.427118,261.007977 279.690255,257 L287,257 L287,293 L2,293 L2,257 L7.30974503,257 Z" id="Combined-Shape" fill="#F7F7F7" mask="url(#mask-2)" transform="translate(144.500000, 275.000000) scale(1, -1) translate(-144.500000, -275.000000) "></path>
            <g id="Group-2" mask="url(#mask-2)">
                <g transform="translate(86.000000, 142.000000)">
                    <path d="M28.432549,7.42359015 C37.3388592,1.77922804 43.817127,11.1740314 46.496195,15.1661687 C48.9224269,18.7815497 50.872216,27.9140629 52.3455621,42.5637082 L48.7013692,44.9243123 C39.1927291,39.1781665 32.4364557,33.7344929 28.432549,28.5932915 C22.4266889,20.8814893 19.200249,13.2745479 28.432549,7.42359015 Z" id="Path-4" fill="#FFBD58"></path>
                    <path d="M56.2335531,4.45236068 C65.1398633,-1.19200143 71.6181311,8.20280188 74.2971991,12.1949393 C76.723431,15.8103203 78.6732201,24.9428334 80.1465662,39.5924787 L76.5023734,41.9530828 C66.9937333,36.206937 60.2374599,30.7632634 56.2335531,25.622062 C50.227693,17.9102599 47.0012531,10.3033184 56.2335531,4.45236068 Z" id="Path-4" fill="#FFBD58" transform="translate(65.301566, 22.323084) rotate(62.000000) translate(-65.301566, -22.323084) "></path>
                    <path d="M71.1619336,28.2681023 C80.0682437,22.6237402 86.5465116,32.0185435 89.2255795,36.0106809 C91.6518115,39.6260619 93.6016005,48.758575 95.0749467,63.4082203 L91.4307538,65.7688244 C81.9221137,60.0226786 75.1658403,54.579005 71.1619336,49.4378036 C65.1560735,41.7260015 61.9296335,34.11906 71.1619336,28.2681023 Z" id="Path-4" fill="#FFBD58" transform="translate(80.229946, 46.138825) rotate(117.000000) translate(-80.229946, -46.138825) "></path>
                    <path d="M58.7769874,53.7592762 C67.6832976,48.1149141 74.1615654,57.5097174 76.8406334,61.5018548 C79.2668653,65.1172358 81.2166544,74.2497489 82.6900005,88.8993942 L79.0458076,91.2599983 C69.5371676,85.5138525 62.7808942,80.0701789 58.7769874,74.9289775 C52.7711273,67.2171754 49.5446874,59.610234 58.7769874,53.7592762 Z" id="Path-4" fill="#FFBD58" transform="translate(67.845000, 71.629999) rotate(180.000000) translate(-67.845000, -71.629999) "></path>
                    <path d="M31.7769874,54.7592762 C40.6832976,49.1149141 47.1615654,58.5097174 49.8406334,62.5018548 C52.2668653,66.1172358 54.2166544,75.2497489 55.6900005,89.8993942 L52.0458076,92.2599983 C42.5371676,86.5138525 35.7808942,81.0701789 31.7769874,75.9289775 C25.7711273,68.2171754 22.5446874,60.610234 31.7769874,54.7592762 Z" id="Path-4" fill="#FFBD58" transform="translate(40.845000, 72.629999) rotate(241.000000) translate(-40.845000, -72.629999) "></path>
                    <path d="M15.4802563,32.2706057 C24.3865665,26.6262435 30.8648343,36.0210469 33.5439023,40.0131842 C35.9701342,43.6285652 37.9199233,52.7610784 39.3932694,67.4107237 L35.7490765,69.7713278 C26.2404365,64.025182 19.4841631,58.5815084 15.4802563,53.440307 C9.47439622,45.7285048 6.24795629,38.1215634 15.4802563,32.2706057 Z" id="Path-4" fill="#FFBD58" transform="translate(24.548269, 50.141329) rotate(303.000000) translate(-24.548269, -50.141329) "></path>
                    <circle id="Oval-3" fill="#F7F7F7" cx="52.5" cy="48.5" r="8.5"></circle>
                </g>
            </g>
            <g id="Group-2" mask="url(#mask-2)">
                <g transform="translate(230.000000, 142.000000)">
                    <path d="M28.432549,7.42359015 C37.3388592,1.77922804 43.817127,11.1740314 46.496195,15.1661687 C48.9224269,18.7815497 50.872216,27.9140629 52.3455621,42.5637082 L48.7013692,44.9243123 C39.1927291,39.1781665 32.4364557,33.7344929 28.432549,28.5932915 C22.4266889,20.8814893 19.200249,13.2745479 28.432549,7.42359015 Z" id="Path-4" fill="#FFBD58"></path>
                    <path d="M56.2335531,4.45236068 C65.1398633,-1.19200143 71.6181311,8.20280188 74.2971991,12.1949393 C76.723431,15.8103203 78.6732201,24.9428334 80.1465662,39.5924787 L76.5023734,41.9530828 C66.9937333,36.206937 60.2374599,30.7632634 56.2335531,25.622062 C50.227693,17.9102599 47.0012531,10.3033184 56.2335531,4.45236068 Z" id="Path-4" fill="#FFBD58" transform="translate(65.301566, 22.323084) rotate(62.000000) translate(-65.301566, -22.323084) "></path>
                    <path d="M71.1619336,28.2681023 C80.0682437,22.6237402 86.5465116,32.0185435 89.2255795,36.0106809 C91.6518115,39.6260619 93.6016005,48.758575 95.0749467,63.4082203 L91.4307538,65.7688244 C81.9221137,60.0226786 75.1658403,54.579005 71.1619336,49.4378036 C65.1560735,41.7260015 61.9296335,34.11906 71.1619336,28.2681023 Z" id="Path-4" fill="#FFBD58" transform="translate(80.229946, 46.138825) rotate(117.000000) translate(-80.229946, -46.138825) "></path>
                    <path d="M58.7769874,53.7592762 C67.6832976,48.1149141 74.1615654,57.5097174 76.8406334,61.5018548 C79.2668653,65.1172358 81.2166544,74.2497489 82.6900005,88.8993942 L79.0458076,91.2599983 C69.5371676,85.5138525 62.7808942,80.0701789 58.7769874,74.9289775 C52.7711273,67.2171754 49.5446874,59.610234 58.7769874,53.7592762 Z" id="Path-4" fill="#FFBD58" transform="translate(67.845000, 71.629999) rotate(180.000000) translate(-67.845000, -71.629999) "></path>
                    <path d="M31.7769874,54.7592762 C40.6832976,49.1149141 47.1615654,58.5097174 49.8406334,62.5018548 C52.2668653,66.1172358 54.2166544,75.2497489 55.6900005,89.8993942 L52.0458076,92.2599983 C42.5371676,86.5138525 35.7808942,81.0701789 31.7769874,75.9289775 C25.7711273,68.2171754 22.5446874,60.610234 31.7769874,54.7592762 Z" id="Path-4" fill="#FFBD58" transform="translate(40.845000, 72.629999) rotate(241.000000) translate(-40.845000, -72.629999) "></path>
                    <path d="M15.4802563,32.2706057 C24.3865665,26.6262435 30.8648343,36.0210469 33.5439023,40.0131842 C35.9701342,43.6285652 37.9199233,52.7610784 39.3932694,67.4107237 L35.7490765,69.7713278 C26.2404365,64.025182 19.4841631,58.5815084 15.4802563,53.440307 C9.47439622,45.7285048 6.24795629,38.1215634 15.4802563,32.2706057 Z" id="Path-4" fill="#FFBD58" transform="translate(24.548269, 50.141329) rotate(303.000000) translate(-24.548269, -50.141329) "></path>
                    <circle id="Oval-3" fill="#F7F7F7" cx="52.5" cy="48.5" r="8.5"></circle>
                </g>
            </g>
            <g id="Group-2" mask="url(#mask-2)">
                <g transform="translate(-50.000000, 142.000000)">
                    <path d="M28.432549,7.42359015 C37.3388592,1.77922804 43.817127,11.1740314 46.496195,15.1661687 C48.9224269,18.7815497 50.872216,27.9140629 52.3455621,42.5637082 L48.7013692,44.9243123 C39.1927291,39.1781665 32.4364557,33.7344929 28.432549,28.5932915 C22.4266889,20.8814893 19.200249,13.2745479 28.432549,7.42359015 Z" id="Path-4" fill="#FFBD58"></path>
                    <path d="M56.2335531,4.45236068 C65.1398633,-1.19200143 71.6181311,8.20280188 74.2971991,12.1949393 C76.723431,15.8103203 78.6732201,24.9428334 80.1465662,39.5924787 L76.5023734,41.9530828 C66.9937333,36.206937 60.2374599,30.7632634 56.2335531,25.622062 C50.227693,17.9102599 47.0012531,10.3033184 56.2335531,4.45236068 Z" id="Path-4" fill="#FFBD58" transform="translate(65.301566, 22.323084) rotate(62.000000) translate(-65.301566, -22.323084) "></path>
                    <path d="M71.1619336,28.2681023 C80.0682437,22.6237402 86.5465116,32.0185435 89.2255795,36.0106809 C91.6518115,39.6260619 93.6016005,48.758575 95.0749467,63.4082203 L91.4307538,65.7688244 C81.9221137,60.0226786 75.1658403,54.579005 71.1619336,49.4378036 C65.1560735,41.7260015 61.9296335,34.11906 71.1619336,28.2681023 Z" id="Path-4" fill="#FFBD58" transform="translate(80.229946, 46.138825) rotate(117.000000) translate(-80.229946, -46.138825) "></path>
                    <path d="M58.7769874,53.7592762 C67.6832976,48.1149141 74.1615654,57.5097174 76.8406334,61.5018548 C79.2668653,65.1172358 81.2166544,74.2497489 82.6900005,88.8993942 L79.0458076,91.2599983 C69.5371676,85.5138525 62.7808942,80.0701789 58.7769874,74.9289775 C52.7711273,67.2171754 49.5446874,59.610234 58.7769874,53.7592762 Z" id="Path-4" fill="#FFBD58" transform="translate(67.845000, 71.629999) rotate(180.000000) translate(-67.845000, -71.629999) "></path>
                    <path d="M31.7769874,54.7592762 C40.6832976,49.1149141 47.1615654,58.5097174 49.8406334,62.5018548 C52.2668653,66.1172358 54.2166544,75.2497489 55.6900005,89.8993942 L52.0458076,92.2599983 C42.5371676,86.5138525 35.7808942,81.0701789 31.7769874,75.9289775 C25.7711273,68.2171754 22.5446874,60.610234 31.7769874,54.7592762 Z" id="Path-4" fill="#FFBD58" transform="translate(40.845000, 72.629999) rotate(241.000000) translate(-40.845000, -72.629999) "></path>
                    <path d="M15.4802563,32.2706057 C24.3865665,26.6262435 30.8648343,36.0210469 33.5439023,40.0131842 C35.9701342,43.6285652 37.9199233,52.7610784 39.3932694,67.4107237 L35.7490765,69.7713278 C26.2404365,64.025182 19.4841631,58.5815084 15.4802563,53.440307 C9.47439622,45.7285048 6.24795629,38.1215634 15.4802563,32.2706057 Z" id="Path-4" fill="#FFBD58" transform="translate(24.548269, 50.141329) rotate(303.000000) translate(-24.548269, -50.141329) "></path>
                    <circle id="Oval-3" fill="#F7F7F7" cx="52.5" cy="48.5" r="8.5"></circle>
                </g>
            </g>
        </g>
    </g>
</svg>