<?xml version="1.0" encoding="UTF-8"?><svg xmlns="http://www.w3.org/2000/svg" viewBox="0 0 819.28 777.6"><defs><style>.d{fill:#fdfae6;}.e{fill:#d43231;}.f{stroke:#d43231;}.f,.g,.h{fill:none;stroke-miterlimit:10;stroke-width:10px;}.g{stroke:#67aac3;}.h{stroke:#eecc1e;}</style></defs><g id="a"/><g id="b"><g id="c"><g><g><rect class="h" x="173.42" y="98.71" width="224.57" height="295.65"/><path class="h" d="M173.42,398.02l19.33,62.5c1.84,5.96,8.04,10.09,15.12,10.09h155.66c7.08,0,13.28-4.14,15.12-10.09l19.33-62.5"/></g><line class="g" x1="4.62" y1="391.47" x2="40.19" y2="477.84"/><g><line class="g" x1="272.79" y1="228.25" x2="817.38" y2="4.63"/><line class="g" x1="280.22" y1="258.87" x2="805.43" y2="195.67"/><circle class="d" cx="284.65" cy="242.27" r="13.02"/></g><g><path class="f" d="M204.27,249.44c0,14.37-13.86,26.02-30.96,26.02-17.1,0-30.96-11.65-30.96-26.02,0-14.37,13.86-26.02,30.96-26.02s30.96,11.65,30.96,26.02Z"/><path class="f" d="M237.16,536.73c0,29.64-28.59,53.67-63.85,53.67-35.26,0-63.85-24.03-63.85-53.67"/><path class="f" d="M237.16,497.26c0,29.64-28.59,53.67-63.85,53.67s-63.85-24.03-63.85-53.67"/><path class="f" d="M236.79,418.34c-3.42,26.93-30.54,47.91-63.48,47.91-32.73,0-59.7-20.7-63.41-47.37"/><path class="f" d="M237.16,536.73v-105.58c0-23.88-5-47.58-14.78-70l-3.34-7.65c-9.77-22.42-14.78-46.12-14.78-70v-34.06"/><path class="f" d="M109.46,536.73v-105.58c0-23.88,5-47.58,14.78-70l3.34-7.65c9.77-22.42,14.78-46.12,14.78-70v-34.06"/></g><g><path class="d" d="M1.18,533.79c0-37.64,29.8-68.15,66.56-68.15s66.56,30.51,66.56,68.15"/><path class="h" d="M72.88,768.5l54.83-229.59H7.65l54.83,229.59c1.31,5.47,9.09,5.47,10.39,0Z"/><circle class="e" cx="106.96" cy="475.78" r="17.71"/></g><g><path class="d" d="M129.35,532.59c0,28.6-27.59,51.79-61.62,51.79-34.03,0-61.62-23.19-61.62-51.79"/><path class="d" d="M67.74,589.33c-36.7,0-66.56-25.45-66.56-56.74H11.07c0,25.83,25.42,46.85,56.67,46.85s56.67-21.02,56.67-46.85h9.89c0,31.29-29.86,56.74-66.56,56.74Z"/></g><path class="g" d="M6.38,140.56c8.12,9.07,22.33,9.07,30.45,0h0c8.12-9.07,22.33-9.07,30.45,0h0c8.12,9.08,22.33,9.08,30.45,0h0c8.12-9.08,22.33-9.08,30.45,0h0c8.12,9.08,22.33,9.08,30.45,0h0c8.12-9.08,22.33-9.08,30.45-.01h0c8.12,9.08,22.32,9.08,30.45,.01h.01c8.12-9.09,22.32-9.09,30.45-.01"/><path class="g" d="M279.72,166.09c-8.12,9.07-22.33,9.07-30.45,0h0c-8.12-9.07-22.33-9.07-30.45,0h0c-8.12,9.08-22.33,9.08-30.45,0h0c-8.12-9.08-22.33-9.08-30.45,0h0c-8.12,9.08-22.33,9.08-30.45,0h0c-8.12-9.08-22.33-9.08-30.45-.01h0c-8.12,9.08-22.32,9.08-30.45,.01h-.01c-8.12-9.09-22.32-9.09-30.45-.01"/></g></g></g></svg>