<?xml version="1.0" encoding="UTF-8"?><svg xmlns="http://www.w3.org/2000/svg" viewBox="0 0 137.69 376.98"><defs><style>.d{fill:none;stroke:#d43231;stroke-miterlimit:10;stroke-width:10px;}</style></defs><g id="a"/><g id="b"><g id="c"><g><path class="d" d="M99.8,31.02c0,14.37-13.86,26.02-30.96,26.02-17.1,0-30.96-11.65-30.96-26.02,0-14.37,13.86-26.02,30.96-26.02s30.96,11.65,30.96,26.02Z"/><path class="d" d="M132.69,318.31c0,29.64-28.59,53.67-63.85,53.67-35.26,0-63.85-24.03-63.85-53.67"/><path class="d" d="M132.69,278.84c0,29.64-28.59,53.67-63.85,53.67s-63.85-24.03-63.85-53.67"/><path class="d" d="M132.33,199.92c-3.42,26.93-30.54,47.91-63.48,47.91-32.73,0-59.7-20.7-63.41-47.37"/><path class="d" d="M132.69,318.31v-105.58c0-23.88-5-47.58-14.78-70l-3.34-7.65c-9.77-22.42-14.78-46.12-14.78-70V31.02"/><path class="d" d="M5,318.31v-105.58c0-23.88,5-47.58,14.78-70l3.34-7.65c9.77-22.42,14.78-46.12,14.78-70V31.02"/></g></g></g></svg>