<svg xmlns="http://www.w3.org/2000/svg" viewBox="0 0 184.38 154.54"><defs><style>.cls-1{fill:#1d4620;}.cls-2{fill:#ce2b17;}</style></defs><title>Asset 4</title><g id="Layer_2" data-name="Layer 2"><g id="Layer_4" data-name="Layer 4"><path class="cls-1" d="M167.7,74.1c.74-.32,1.47-.66,2.22-1,.33-.13.7-.36,1-.3s1.09.28,1.28.62c.35.61-.13,1-.71,1.31-1.37.69-2.75,1.37-4.05,2.17-2,1.2-2.61,3.32-3.37,5.33a61.78,61.78,0,0,1-7.39,14.13,2.13,2.13,0,0,0-.11.41,4.88,4.88,0,0,0,.73-.15c1.54-.57,3.09-1.12,4.59-1.78a1.64,1.64,0,0,0,.7-1,6.15,6.15,0,1,1,6.71,7.44A5.84,5.84,0,0,1,163.2,98c-.52-1.18-1.09-1.12-2-.78a20.53,20.53,0,0,0-11,8.6,46.36,46.36,0,0,1-7.79,9.27c-.38.35-.73.75-1.09,1.12l.07.37c.19-.07.37-.17.57-.23,6-2,12-3.94,18-6.06a70.39,70.39,0,0,0,6.7-3.15,4,4,0,0,1,1.27-.56,2.33,2.33,0,0,1,1.6.34c.21.21,0,1.15-.26,1.49-4.33,4.82-8.56,9.74-13.53,13.93A58.54,58.54,0,0,1,128.85,135c-8.23,1.64-16.58,1.72-24.92,1.91-7.84.18-15.68.52-23.51.79-.67,0-1.34.07-2.06.1a7.49,7.49,0,0,0,4.57,2.29,54.2,54.2,0,0,1,11.66.76A62,62,0,0,1,112.9,148c2.43,1.38,4.88,2.72,7.32,4.09a2.39,2.39,0,0,1,.87.59,1.76,1.76,0,0,1,.37,1.22,1.32,1.32,0,0,1-1.06.62c-6.14-.4-12.3-.73-18.42-1.33a28.34,28.34,0,0,1-16.56-7.69,38.71,38.71,0,0,0-13.62-8,16.41,16.41,0,0,0-3.24-.41l-.15.26c.43.58.87,1.15,1.29,1.73a5,5,0,0,1,.93,1.42c.12.42-.16.94-.26,1.42-.46-.12-1.08-.09-1.36-.39-.88-.93-1.62-2-2.45-3a5.41,5.41,0,0,0-3.87-1.93c-3.95-.4-7.87-1.07-11.8-1.63l-.81-.12-.14.21c.29.28.61.54.87.84,1.14,1.32,2.35,2.6,3.37,4a1.65,1.65,0,0,0,1.74.83,5.7,5.7,0,0,1,5.82,3.53,5.79,5.79,0,0,1-1.58,6.73,5.83,5.83,0,0,1-8-8.46c.72-.72.63-1.18.11-1.89a22.85,22.85,0,0,0-12.33-8.62c-4.7-1.37-9.38-2.81-14.07-4.21-.43-.13-.87-.24-1.58-.43.24.57.36.88.51,1.18l6.9,14.43c.12.26.32.56.27.8-.09.4-.27,1-.56,1.09a1.29,1.29,0,0,1-1.16-.37,9.85,9.85,0,0,1-.9-1.81q-3-6.21-5.94-12.4a7.91,7.91,0,0,0-.48-.79,2.75,2.75,0,0,1-3.47-1.47c-.06-.15-.08-.37-.19-.45-1.2-.91-1.21-.91-1.06-2.09-2.58-.92-5.2-1.76-7.76-2.79-3.18-1.27-6.31-2.69-9.46-4-.13-.06-.32-.11-.37-.21-.24-.46-.69-1-.58-1.4.2-.68.87-.7,1.52-.41,2.32,1,4.61,2.16,7,3,4.25,1.59,8.55,3.06,12.85,4.52,2.6.88,5.24,1.69,7.87,2.46a3.61,3.61,0,0,0,1.87.06A21,21,0,0,0,40,121.7a1.09,1.09,0,0,0,.21-1.64,5.35,5.35,0,0,1,.35-6.32,5.48,5.48,0,0,1,5.61-1.82A5.42,5.42,0,0,1,50,118.44a5.35,5.35,0,0,1-6.41,4,1.91,1.91,0,0,0-2.18.67,19.86,19.86,0,0,1-6.18,4.38c-.29.14-.58.28-.86.44-.08,0-.13.16-.28.35.73.23,1.39.46,2.06.65,1.55.44,3.13.78,4.64,1.3a12.52,12.52,0,0,0,5.09.39c7.21-.49,13.4-3.53,19.31-7.44,5.11-3.37,10.32-6.58,15.57-9.74a51.48,51.48,0,0,1,19-6.92,32.72,32.72,0,0,1,19.05,2.87c.29.14.66.17.88.38s.82.75.83,1.16-.58.85-1,.9c-6.5.73-12.32,3.44-18.15,6.11A151.67,151.67,0,0,1,64,129.56c-4.55.79-9.09,1.62-13.63,2.44-.36.06-.71.17-1.07.25v.29c.78.18,1.55.4,2.33.55a141.8,141.8,0,0,0,29.08,2.3c4.67-.1,8.48-2.38,11.91-5.33.22-.18.18-.84.05-1.2a5.38,5.38,0,0,1,1.46-6,5.31,5.31,0,0,1,6.2-.58,5.32,5.32,0,0,1-4.89,9.43,1.43,1.43,0,0,0-1.86.24c-1.23,1-2.55,1.92-3.83,2.87l0,.36a74.07,74.07,0,0,0,8-.72c6.32-1.22,12.14-4,17.65-7.14,3.13-1.8,5.63-4.71,8.34-7.19a4.2,4.2,0,0,0,.85-1.93c1.64-5.61,2.11-11.39,2.53-17.17a50.25,50.25,0,0,1,3.69-16.8,41.3,41.3,0,0,1,7.66-11.58,2.38,2.38,0,0,1,1.84-.67c.38.06.9,1,.88,1.48C141,79.7,141,86,140.34,92.14c-.78,7.39-4.07,13.94-7.94,20.21a53.42,53.42,0,0,1-7.66,9.91.85.85,0,0,0-.25.68c.31-.1.62-.19.91-.31,2.55-1.06,5-2.25,7.65-3.15a7.71,7.71,0,0,0,4-3.2,32.91,32.91,0,0,0,5.55-14.38c.11-.8.11-1.9,1.27-1.72s.86,1.27.75,2.1a34.4,34.4,0,0,1-2.52,9.17,1.53,1.53,0,0,0-.13,1.08c1-1,2-2,2.91-3a40.65,40.65,0,0,0,9.3-20.23c.28-1.69-.26-3.55-.61-5.29a26.8,26.8,0,0,0-5.23-10.74c-3-4-6.18-7.89-9.26-11.84a54.35,54.35,0,0,1-10-19.55c-.32-1.17-.88-2.28-1.21-3.44a4.75,4.75,0,0,1,.09-1.58c.56,0,1.28-.1,1.65.19,5.52,4.38,11.22,8.57,16.43,13.29,7.4,6.73,11.42,15.16,11.36,25.38a68.09,68.09,0,0,1-2,17.77,1.19,1.19,0,0,0,.14.9c.31-.45.64-.87.93-1.33a81,81,0,0,0,8.91-21.42A16.19,16.19,0,0,0,165,63,76.4,76.4,0,0,0,158.31,47a25.81,25.81,0,0,0-6.1-7,3.75,3.75,0,0,0-2.16-.81c-2.35-.08-4.71,0-7.06.05a12.5,12.5,0,0,0-1.59.25c-.63.09-1.19,0-1.35-.73s.32-1.18,1-1.26q3.09-.39,6.19-.66a3.18,3.18,0,0,1,1,.28l.11-.6c-1.28-1-2.52-2-3.85-2.94a70.91,70.91,0,0,0-20.8-10,4.94,4.94,0,0,0-2.29-.12c-11.35,2.31-22.31.82-33-3.37-3.08-1.21-6-2.76-9-4.19a3.64,3.64,0,0,1-1.33-1.06c-.31-.45-.66-1.16-.51-1.58s.89-.76,1.42-.87a9.39,9.39,0,0,1,2.25,0c6.43.32,12.89.42,19.3,1.06s12.17,2.81,17.87,5.46a59,59,0,0,0,9.32,3.81,5.13,5.13,0,0,0,.65,0c-.38-.53-.67-.9-.94-1.29-.76-1.13-1.56-2.23-2.27-3.39s-1.4-2.21-3-2.52c-1.87-.36-2.9-2.76-2.43-4.79a4.15,4.15,0,0,1,8.18,1,3.82,3.82,0,0,1-1.35,3,.83.83,0,0,0-.18,1.34c1.79,2.41,3.47,4.91,5.37,7.23a8.69,8.69,0,0,0,3,2.16,71.94,71.94,0,0,1,19.2,13.18,1,1,0,0,0,.69.27c-.11-.38-.21-.76-.34-1.13a42.83,42.83,0,0,1-2.57-18.38,55.3,55.3,0,0,1,1.38-6.7,1.58,1.58,0,0,1,1.55-1.4c.93,0,1.28.67,1.53,1.41,1.84,5.54,3.71,11.08,5.52,16.63,1.93,5.92,4,11.81,5.68,17.8a42.53,42.53,0,0,1,1.38,18.4,2.36,2.36,0,0,0,0,.53c0,.05.09.1.27.27.77-1.61,1.44-3.22,2.27-4.74,2.79-5.12,2.37-10.68,2.17-16.17-.35-9.65-.26-19.25,1.59-28.78a97.72,97.72,0,0,1,4.49-15.19A3,3,0,0,1,180.3.34a1.12,1.12,0,0,1,1.86.41,2.58,2.58,0,0,1,.27.81c.83,6.1,1.89,12.18,1.95,18.36a69.6,69.6,0,0,1-4,23.06c-2.23,6.56-4.69,13.05-7.28,19.48-1.4,3.48-3.26,6.76-4.92,10.13-.22.45-.43.9-.65,1.34Zm-3.77,37.1-.15-.22c-.15,0-.32.07-.47.12-5.05,1.82-10.05,3.8-15.16,5.43a186.36,186.36,0,0,0-22.56,8.3c-6.75,3.14-13.47,6.35-20.19,9.54-.11,0-.19.19-.35.36a7.45,7.45,0,0,0,.84.07,133.05,133.05,0,0,0,21.19-1.56,56.38,56.38,0,0,0,30.1-15C159.5,116,161.68,113.54,163.93,111.2ZM62,127.53a3.85,3.85,0,0,0,.59.12l1.17-.16a147.64,147.64,0,0,0,33.66-10.07c5.76-2.52,11.4-5.38,17.55-6.91.08,0,.14-.13.27-.26a6.26,6.26,0,0,0-.7-.34,30.73,30.73,0,0,0-12.69-1.55,44.41,44.41,0,0,0-18.15,5.87c-5.5,3-10.76,6.53-16.12,9.83Zm69.3-86.38-.34.08c.07.19.14.38.22.58,1.26,3.18,2.31,6.48,3.83,9.53,2.55,5.12,6.16,9.55,9.77,14,3.89,4.73,7.75,9.48,10,15.29,0,.11.16.2.32.39a3,3,0,0,0,.15-.48c.15-4.66.16-9.33-1.1-13.86a32.17,32.17,0,0,0-9.66-14.95c-2.85-2.64-6-5-9-7.42C134.1,43.18,132.68,42.18,131.3,41.15Zm-3.74,74.11.34.11c4-5.84,7.55-11.93,9.48-18.85s1.62-14,1.8-21.39c-.43.45-.64.64-.81.85a39.18,39.18,0,0,0-8.69,20.8c-.54,4.87-1,9.75-1.49,14.63C128.06,112.7,127.77,114,127.56,115.26Zm53-110.54c-5.6,14.61-5.75,29.67-4.85,45.17C181.74,35.14,184.26,20.33,180.57,4.72ZM166.79,61.39l.26,0c0-.56.06-1.13.06-1.69a58.84,58.84,0,0,0-3.34-17.77c-2.88-8.81-5.91-17.58-8.87-26.36a4.11,4.11,0,0,0-.33-.57,5.68,5.68,0,0,0-.27,1,72.16,72.16,0,0,0-.64,8.53c.26,7.33,2.67,14.08,6,20.56a92.63,92.63,0,0,1,6.85,15.84A2.73,2.73,0,0,0,166.79,61.39ZM118.91,21.78l.06-.32a2.43,2.43,0,0,0-.32-.24,66.78,66.78,0,0,0-16.83-5.61c-6.61-1.2-13.33-1-20-1.21a2.85,2.85,0,0,0-.58.23C93.3,20.62,105.6,23.86,118.91,21.78ZM115.05,151.7c-9.32-5.6-18.82-9.92-29.83-9.35,4,4.06,8.6,7.12,14.25,8.35,5,1.08,10,.91,15.08,1.21C114.64,151.92,114.73,151.84,115.05,151.7ZM171.57,98a4,4,0,0,0-.14-5.69,4.07,4.07,0,1,0-5.63,5.88A4.07,4.07,0,0,0,171.57,98ZM53.72,149.37a3.79,3.79,0,1,0-.07-5.37A3.75,3.75,0,0,0,53.72,149.37Zm-11.3-29.84a3.31,3.31,0,1,0,0-4.77A3.31,3.31,0,0,0,42.42,119.53Zm57.51,9.61a3.25,3.25,0,1,0-4.65-4.54,3.25,3.25,0,1,0,4.65,4.54Zm22.32-116a2.26,2.26,0,0,0,3,.06,2.2,2.2,0,0,0,0-2.94,2.15,2.15,0,0,0-3-.1A2.07,2.07,0,0,0,122.25,13.15Z"/><circle class="cls-2" cx="124.03" cy="10.92" r="5.26"/><circle class="cls-2" cx="168.88" cy="95.39" r="6.63"/><circle class="cls-2" cx="97.51" cy="126.86" r="5.88"/><circle class="cls-2" cx="44.76" cy="117" r="5.59"/><circle class="cls-2" cx="56.39" cy="146.66" r="6.17"/></g></g></svg>