<svg xmlns="http://www.w3.org/2000/svg" viewBox="0 0 190.22 152.7"><defs><style>.cls-1{fill:#1d4620;}.cls-2{fill:#ce2b17;}.cls-3{fill:none;stroke:#1d4620;stroke-linecap:round;stroke-linejoin:round;stroke-width:2px;}</style></defs><title>Asset 3</title><g id="Layer_2" data-name="Layer 2"><g id="Layer_4" data-name="Layer 4"><path class="cls-1" d="M158.37,32.27c-2.89-.35-5.91-.71-8.91-1.09a72,72,0,0,1-9.2-1.32,6.66,6.66,0,0,0-6.15,1.25,22.72,22.72,0,0,0-2,1.59c-.68.65-1.26,1.41-1.94,2.18l1,.75a5.27,5.27,0,0,1-5.58,8.86,5.27,5.27,0,0,1,1.73-10,2.62,2.62,0,0,0,1.31-.78c1.24-1.23,2.39-2.55,3.65-3.75a18.71,18.71,0,0,1,2.27-1.6,27.86,27.86,0,0,1-3-1.43,2.84,2.84,0,0,0-2.57-.35,37.72,37.72,0,0,0-6.41,2.55c-5.23,3.12-10.29,6.52-15.46,9.75-3.65,2.29-7.24,4.71-11.08,6.64C89,49.08,81.43,51.24,73.79,53c-2.92.69-5.9,1.13-8.86,1.66-.6.11-1.2.08-1.46-.64a1.17,1.17,0,0,1,.7-1.52,8.15,8.15,0,0,0,.8-.49c2.56-1.75,5.2-3.4,7.67-5.27,5.11-3.88,10-8,15.19-11.81a53.91,53.91,0,0,1,22-9.95c1.22-.24,2.45-.45,3.94-.71a4.52,4.52,0,0,0-.62-.31,24.21,24.21,0,0,0-13.45-.33,78,78,0,0,1-22.55,2.91,1.82,1.82,0,0,0-1.06.26,10.51,10.51,0,0,0-3.76,5.56c.26.14.43.24.61.32A5.22,5.22,0,1,1,65.81,39c-.69-2.33.14-5.06,2.33-5.93a5.39,5.39,0,0,0,3.12-3.42,24.62,24.62,0,0,1,1.81-3.05,2.42,2.42,0,0,0-.48.05,31,31,0,0,0-14.13,9.38,10.16,10.16,0,0,0-2.36,4.27,27.11,27.11,0,0,0,4.07,20.3,9,9,0,0,0,.62.74c.41-.21.71-.38,1-.53a5.14,5.14,0,0,1,6.24,1.53A5.18,5.18,0,0,1,61.26,70a5.35,5.35,0,0,1-2.19-6.17,1.52,1.52,0,0,0,0-1.19,29.49,29.49,0,0,1-5.3-14.43c0-.33-.13-.66-.2-1A4.84,4.84,0,0,0,53,48.92c-.94,5.49,0,10.85,1,16.25a27.34,27.34,0,0,0,5.23,12,40.17,40.17,0,0,1,3.34,5.34c3.91,7.29,6,15.2,7.67,23.23,1.74,8.19,1.84,16.55,2.75,24.82a1.43,1.43,0,0,1-.62,1.21,1.63,1.63,0,0,1-1.37-.49c-1.72-2.16-3.49-4.29-5-6.59A66.22,66.22,0,0,1,54.85,89.05a114.42,114.42,0,0,0-.91-13.73c-.83-5.73-2.21-11.38-3.36-17.07l-.24-.17c-.73,1.91-1.6,3.78-2.15,5.74-1,3.67-.75,7.47-.73,11.23a66.24,66.24,0,0,1-3.35,22.53c-2.35,6.63-5.14,13.11-6.17,20.15a1.09,1.09,0,0,1-1.18,1.06c-.77,0-.93-.62-1-1.22-.47-3.25-1-6.49-1.38-9.75-1.44-13.9,1-27,8-39.19,2-3.42,3.92-6.9,5.76-10.41A23.28,23.28,0,0,0,50.9,49.6a27.9,27.9,0,0,1,4.9-13.38c.49-.71,1-1.39,1.55-2.08l-.24-.28c-1.71,1-3.49,1.93-5.1,3.09A89.5,89.5,0,0,0,33,55.71a2.74,2.74,0,0,0-.55,1.41c-.19,2.68-.28,5.37-.45,8.06a1.73,1.73,0,0,0,1.46,2.09A4.37,4.37,0,0,1,36.27,72a4.63,4.63,0,0,1-8.77,1.55c-.88-1.83-.58-4.3,1.06-5.34,1.48-1,1.62-2.08,1.44-3.53A11.5,11.5,0,0,1,30,63c0-1,0-2.08.06-3.41-.43.58-.69.9-.92,1.23a64.87,64.87,0,0,0-6.44,12.26,95.82,95.82,0,0,0-3.73,10.42c-1,3.83-.58,7.82-.3,11.75a95.19,95.19,0,0,1-.05,17.38,88.76,88.76,0,0,1-4.69,19.07,71.4,71.4,0,0,1-10.23,20c-.42.55-.77,1.26-1.63.91s-.55-1.06-.49-1.71c.12-1.17.26-2.34.29-3.51.19-5.9.3-11.81.53-17.71a74.33,74.33,0,0,1,6-27.57c1.82-4.09,4-8,5.74-12.16,2-4.68,3.56-9.5,5.32-14.26.36-1,.75-2,1.17-3a2.09,2.09,0,0,0-.45.11c-2.19,1.44-4.39,2.87-6.54,4.36a1.24,1.24,0,0,0-.33,1,6.08,6.08,0,0,1-1,4.54,5.79,5.79,0,0,1-5.95,2.53A5.57,5.57,0,0,1,1.54,81a5.73,5.73,0,0,1,1.8-6.3,5.94,5.94,0,0,1,8.18.25,1,1,0,0,0,1.5.15c2-1.4,4.16-2.63,6-4.19a20.75,20.75,0,0,0,4.48-4.79A93,93,0,0,1,30.2,55.89c.46-.57.88-1.17,1.32-1.76a2.93,2.93,0,0,0-1.17.46c-5.06,2.9-10.06,5.9-15.18,8.66-4,2.14-8.11,4-12.17,6a13.52,13.52,0,0,1-1.61.91A1.36,1.36,0,0,1,.2,69.94a1.35,1.35,0,0,1-.1-1.21A5.26,5.26,0,0,1,1.23,67.4c2.05-2,4.17-3.92,6.17-6,4.09-4.21,8-8.63,12.2-12.69A55.92,55.92,0,0,1,44,34.65C49.94,33,55.83,31.13,61.7,29.19c2.32-.76,4.5-2,7-3.07A4.75,4.75,0,0,0,68,25.8c-6-1-11.82-3.22-18.06-2.69-.68.06-1.35-.13-1.48-1s.41-1.11,1-1.37a108.5,108.5,0,0,1,15.06-5.51,50,50,0,0,1,33.17,2.12c7.33,3.08,15,4.61,22.79,5.85a46.74,46.74,0,0,0,4.74.29l.14-.4c-6.92-4.82-13.73-9.79-20.79-14.38-3.62-2.36-7.68-4-11.55-6-.56-.28-1.33-.53-1.08-1.27.18-.52.79-.93,1.28-1.3a1.57,1.57,0,0,1,.9-.15c1.14,0,2.29,0,3.42.1,4.83.41,9.36,2,13.87,3.67A76.17,76.17,0,0,1,131.3,14.18c5.36,4.07,10.67,8.24,16.06,12.29,2.26,1.7,4.65,3.21,7.63,3.4,1.35.08,2.68.28,4,.49a1.69,1.69,0,0,1,1,.53S161.43,32.33,158.37,32.27ZM11.13,100.77a75.46,75.46,0,0,0-6.84,30.47q-.23,7.6-.43,15.21a2.06,2.06,0,0,0,.18.94C9.6,139,12.76,129.7,15.22,120.07s1.88-19.6.85-29.51C14.42,94,12.74,97.35,11.13,100.77Zm99.68-73.91c-9.44,1.74-17.54,6.24-25,12.09q-7.08,5.56-14.14,11.13a14.72,14.72,0,0,0-2,1.69c.55-.07,1.11-.11,1.65-.23C83.66,48.8,95.47,44.77,106,37.43c4.54-3.18,9.25-6.13,13.9-9.14,1.21-.77,2.51-1.39,3.77-2.08A50.89,50.89,0,0,0,110.81,26.86ZM56.75,83.71c.35,5.17.37,10.39,1.16,15.49a60.25,60.25,0,0,0,11.94,27.54,7.75,7.75,0,0,0,.67.7c-.15-2.31-.28-4.43-.42-6.55A113.63,113.63,0,0,0,64.19,91.3a56.1,56.1,0,0,0-7.33-14c-.09-.13-.21-.25-.49-.58C56.5,79.25,56.6,81.48,56.75,83.71ZM75.27,15.49a63.93,63.93,0,0,0-20.84,5.37c.11.16.14.25.18.26,4.09.82,8.16,1.71,12.27,2.44a71.42,71.42,0,0,0,27.37-.67c2-.42,4-.9,6.07-1.35l1.29-.34C93.1,17.27,84.5,14.79,75.27,15.49Zm-65,47.86C20.38,58.71,30,53.23,38.43,45.84L50.81,35c.09,0,0,0-.07,0-5.84,1.55-11.71,3-17.07,5.93A65.07,65.07,0,0,0,18.56,52.5C15,56.18,11.51,60,8,63.76a5.82,5.82,0,0,0-.36.47l.17.2ZM139,22.6c-3.64-2.74-7.22-5.56-10.93-8.21A73.4,73.4,0,0,0,111,5.77,59.61,59.61,0,0,0,98.76,2.26c-.34,0-.68-.08-1-.1a3.9,3.9,0,0,0-.59.16c1.26.64,2.35,1.19,3.43,1.76a161.56,161.56,0,0,1,20.51,13.64A70.24,70.24,0,0,0,134.19,26a41.63,41.63,0,0,0,12.24,2.93,1.28,1.28,0,0,0,.38-.05l.13-.3ZM36.87,111.78c.17-.16.28-.22.3-.3,1.56-4.46,3.07-8.93,4.65-13.38a66.33,66.33,0,0,0,3.63-22.78c0-2.34,0-4.69.07-7,0-.19,0-.38-.05-.71C36.76,81.25,34.49,96,36.87,111.78ZM10.53,81.71a4.05,4.05,0,0,0-.78-5.64,4,4,0,1,0,.78,5.64Zm119.9-40a3.24,3.24,0,0,0-.65-4.52,3.2,3.2,0,0,0-4.51.64,3.15,3.15,0,0,0,.65,4.5A3.21,3.21,0,0,0,130.43,41.7ZM72.72,35a3.13,3.13,0,0,0-4.49.66A3.18,3.18,0,1,0,72.72,35ZM62.11,68.06a3.13,3.13,0,1,0-.61-4.38A3,3,0,0,0,62.11,68.06ZM33.3,69.46a2.63,2.63,0,0,0-3.75.48,2.58,2.58,0,0,0,.57,3.65,2.61,2.61,0,0,0,3.18-4.13Z"/><circle class="cls-2" cx="127.29" cy="40.5" r="7.45"/><circle class="cls-2" cx="70.74" cy="37.44" r="5.36"/><circle class="cls-2" cx="63.98" cy="65.55" r="5.36"/><circle class="cls-2" cx="31.34" cy="71.68" r="5.36"/><circle class="cls-2" cx="7.32" cy="79.3" r="6.26"/><path class="cls-3" d="M152.9,30.59a252.12,252.12,0,0,0,36.32,2.07"/></g></g></svg>