<?xml version="1.0" standalone="no"?>
<!DOCTYPE svg PUBLIC "-//W3C//DTD SVG 20010904//EN"
 "http://www.w3.org/TR/2001/REC-SVG-20010904/DTD/svg10.dtd">
<svg version="1.0" xmlns="http://www.w3.org/2000/svg"
 width="1240.000000pt" height="1748.000000pt" viewBox="0 0 1240.000000 1748.000000"
 preserveAspectRatio="xMidYMid meet">
<metadata>
Created by potrace 1.15, written by Peter Selinger 2001-2017
</metadata>
<g id="image" transform="translate(0.000000,1748.000000) scale(0.100000,-0.100000)"
style="fill: currentColor;" stroke="none">
<path d="M740 17383 c-41 -52 -88 -112 -105 -131 -148 -177 -249 -287 -427
-468 l-208 -211 0 -699 0 -700 28 -26 c37 -35 225 -176 292 -219 125 -82 196
-126 213 -132 9 -3 17 -13 17 -20 0 -8 -56 -173 -124 -368 -68 -195 -192 -553
-275 -797 l-151 -443 0 -6585 0 -6584 705 0 c665 0 705 1 705 18 0 9 -9 109
-20 222 -60 621 -139 1630 -184 2355 -211 3358 -204 6662 19 10105 38 580 119
1633 131 1709 6 38 -1 38 144 2 47 -11 110 -25 140 -32 30 -6 73 -14 95 -19
22 -4 86 -14 142 -21 l102 -12 6 -71 c3 -39 37 -638 75 -1331 185 -3326 284
-4840 416 -6350 235 -2693 518 -4603 955 -6437 l33 -138 2778 0 c1528 0 2778
2 2778 4 0 3 -82 119 -183 258 -1342 1856 -2025 2933 -2677 4223 -933 1848
-1614 3791 -2404 6860 -180 701 -746 2988 -746 3015 0 6 10 10 23 10 69 0 593
151 681 197 15 8 32 11 36 6 4 -4 72 -129 150 -278 2274 -4318 4222 -7122
6945 -9999 308 -326 695 -724 1133 -1166 l421 -425 0 2545 1 2545 -137 85
c-187 116 -685 446 -928 615 -1947 1351 -3750 3001 -5786 5295 -429 484 -1039
1193 -1039 1208 0 5 25 29 57 52 99 75 255 213 365 323 58 59 109 107 112 107
3 0 117 -65 253 -144 1652 -957 3261 -1801 4698 -2463 719 -332 1453 -645
2110 -900 149 -58 276 -107 283 -110 9 -4 12 268 12 1341 l0 1346 -22 4 c-13
3 -151 24 -308 46 -1794 257 -3900 764 -6335 1523 l-270 85 85 6 c47 3 191 10
320 16 1902 87 3800 479 5642 1168 l207 77 -2158 3 -2158 2 -149 -56 c-709
-267 -1556 -519 -2307 -685 l-148 -33 -106 105 c-140 139 -400 423 -509 559
l-89 109 -1640 0 -1640 0 -75 -96z"/>
</g>
</svg>
